ISO-10303-21;
HEADER;
FILE_DESCRIPTION((''),'2;1');
FILE_NAME('2460137-SMBJSeries_LTF', '2026-08-20T21:49:36', (''), (''), 'ImageToStl.com STEP Converter','', '');
FILE_SCHEMA(('AUTOMOTIVE_DESIGN_CC2'));
ENDSEC;
DATA;
#1=PRODUCT_DEFINITION_CONTEXT('',#4,'design');
#2=APPLICATION_PROTOCOL_DEFINITION('INTERNATIONAL STANDARD','automotive_design',1994,#4);
#3=(GEOMETRIC_REPRESENTATION_CONTEXT(3)GLOBAL_UNCERTAINTY_ASSIGNED_CONTEXT((#5))GLOBAL_UNIT_ASSIGNED_CONTEXT((#6,#7,#8))REPRESENTATION_CONTEXT('NONE','WORKSPACE'));
#4=APPLICATION_CONTEXT(' ');
#5=UNCERTAINTY_MEASURE_WITH_UNIT(LENGTH_MEASURE(1.0E-006),#6,'','');
#6=(CONVERSION_BASED_UNIT('METRE',#10)LENGTH_UNIT()NAMED_UNIT(#11));
#7=(NAMED_UNIT(#12)PLANE_ANGLE_UNIT()SI_UNIT($,.RADIAN.));
#8=(NAMED_UNIT(#12)SOLID_ANGLE_UNIT()SI_UNIT($,.STERADIAN.));
#9=AXIS2_PLACEMENT_3D('',#14,#15,#16);
#10=LENGTH_MEASURE_WITH_UNIT(LENGTH_MEASURE(1.0),#17);
#11=DIMENSIONAL_EXPONENTS(1.0,0.0,0.0,0.0,0.0,0.0,0.0);
#12=DIMENSIONAL_EXPONENTS(0.0,0.0,0.0,0.0,0.0,0.0,0.0);
#13=PRODUCT_CONTEXT('',#4,'mechanical');
#14=CARTESIAN_POINT('',(0.0,0.0,0.0));
#15=DIRECTION('',(0.0,0.0,1.0));
#16=DIRECTION('',(1.0,0.0,0.0));
#17=(NAMED_UNIT(#11)LENGTH_UNIT()SI_UNIT(.MILLI.,.METRE.));
#18=PRESENTATION_STYLE_ASSIGNMENT((#19));
#19=SURFACE_STYLE_USAGE(.BOTH.,#20);
#20=SURFACE_SIDE_STYLE('',(#21));
#21=SURFACE_STYLE_FILL_AREA(#22);
#22=FILL_AREA_STYLE('',(#23));
#23=FILL_AREA_STYLE_COLOUR('',#24);
#24=COLOUR_RGB('',0.72549,0.72549,0.72549);
#25=PRESENTATION_STYLE_ASSIGNMENT((#26));
#26=SURFACE_STYLE_USAGE(.BOTH.,#27);
#27=SURFACE_SIDE_STYLE('',(#28));
#28=SURFACE_STYLE_FILL_AREA(#29);
#29=FILL_AREA_STYLE('',(#30));
#30=FILL_AREA_STYLE_COLOUR('',#31);
#31=COLOUR_RGB('',0.78431,0.68627,0.5098);
#32=PRESENTATION_STYLE_ASSIGNMENT((#33));
#33=SURFACE_STYLE_USAGE(.BOTH.,#34);
#34=SURFACE_SIDE_STYLE('',(#35));
#35=SURFACE_STYLE_FILL_AREA(#36);
#36=FILL_AREA_STYLE('',(#37));
#37=FILL_AREA_STYLE_COLOUR('',#38);
#38=COLOUR_RGB('',0.45882,0.3451,0.17647);
#39=PRESENTATION_STYLE_ASSIGNMENT((#40));
#40=SURFACE_STYLE_USAGE(.BOTH.,#41);
#41=SURFACE_SIDE_STYLE('',(#42));
#42=SURFACE_STYLE_FILL_AREA(#43);
#43=FILL_AREA_STYLE('',(#44));
#44=FILL_AREA_STYLE_COLOUR('',#45);
#45=COLOUR_RGB('',0.58824,0.58824,0.58824);
#46=SHAPE_DEFINITION_REPRESENTATION(#47,#48);
#47=PRODUCT_DEFINITION_SHAPE('productshape0','',#51);
#48=MANIFOLD_SURFACE_SHAPE_REPRESENTATION('',(#49,#9),#3);
#49=SHELL_BASED_SURFACE_MODEL('shell0',(#53));
#50=PRODUCT('product0','','',(#13));
#51=PRODUCT_DEFINITION('mesh0','',#52,#2);
#52=PRODUCT_DEFINITION_FORMATION_WITH_SPECIFIED_SOURCE('prodsource0','',#50,.NOT_KNOWN.);
#53=CLOSED_SHELL('',(#183,#206,#229,#252,#275,#298,#321,#344,#367,#390,#413,#436,#459,#482,#505,#528,#551,#574,#597,#620,#643,#666,#689,#712,#735,#758,#781,#804,#827,#850,#873,#896,#919,#942,#965,#988,#1011,#1034,#1057,#1080,#1103,#1126,#1149,#1172,#1195,#1218,#1241,#1264,#1287,#1310,#1333,#1356,#1379,#1402,#1425,#1448,#1471,#1494,#1517,#1540,#1563,#1586,#1609,#1632,#1655,#1678,#1701,#1724,#1747,#1770,#1793,#1816,#1839,#1862,#1885,#1908,#1931,#1954,#1977,#2000,#2023,#2046,#2069,#2092,#2115,#2138,#2161,#2184,#2207,#2230,#2253,#2276,#2299,#2322,#2345,#2368,#2391,#2414,#2437,#2460,#2483,#2506,#2529,#2552,#2575,#2598,#2621,#2644));
#54=CARTESIAN_POINT('',(2635.25,1968.5,2438.3999999999996));
#55=VERTEX_POINT('',#54);
#56=CARTESIAN_POINT('',(2635.25,-1968.5,2438.3999999999996));
#57=VERTEX_POINT('',#56);
#58=CARTESIAN_POINT('',(-2635.25,-1968.5,2438.3999999999996));
#59=VERTEX_POINT('',#58);
#60=CARTESIAN_POINT('',(-2635.25,1968.5,2438.3999999999996));
#61=VERTEX_POINT('',#60);
#62=CARTESIAN_POINT('',(2635.25,1968.5,1295.3999999999999));
#63=VERTEX_POINT('',#62);
#64=CARTESIAN_POINT('',(2635.25,-1968.5,1295.3999999999999));
#65=VERTEX_POINT('',#64);
#66=CARTESIAN_POINT('',(-2635.25,-1968.5,1295.3999999999999));
#67=VERTEX_POINT('',#66);
#68=CARTESIAN_POINT('',(-2635.25,1968.5,1295.3999999999999));
#69=VERTEX_POINT('',#68);
#70=CARTESIAN_POINT('',(2635.25,1968.5,1143));
#71=VERTEX_POINT('',#70);
#72=CARTESIAN_POINT('',(2635.25,-1968.5,1143));
#73=VERTEX_POINT('',#72);
#74=CARTESIAN_POINT('',(-2635.25,-1968.5,1143));
#75=VERTEX_POINT('',#74);
#76=CARTESIAN_POINT('',(-2635.25,1968.5,1143));
#77=VERTEX_POINT('',#76);
#78=CARTESIAN_POINT('',(2486.0585622924814,1819.3085622924814,177.79999999999998));
#79=VERTEX_POINT('',#78);
#80=CARTESIAN_POINT('',(2486.0585622924814,-1819.3085622924814,177.79999999999998));
#81=VERTEX_POINT('',#80);
#82=CARTESIAN_POINT('',(-2486.0585622924814,-1819.3085622924814,177.79999999999998));
#83=VERTEX_POINT('',#82);
#84=CARTESIAN_POINT('',(-2486.0585622924814,1819.3085622924814,177.79999999999998));
#85=VERTEX_POINT('',#84);
#86=CARTESIAN_POINT('',(1143,1819.3085622924814,177.79999999999998));
#87=VERTEX_POINT('',#86);
#88=CARTESIAN_POINT('',(1143,-1819.3085622924814,177.79999999999998));
#89=VERTEX_POINT('',#88);
#90=CARTESIAN_POINT('',(-1143,-1819.3085622924814,177.79999999999998));
#91=VERTEX_POINT('',#90);
#92=CARTESIAN_POINT('',(-1143,1819.3085622924814,177.79999999999998));
#93=VERTEX_POINT('',#92);
#94=CARTESIAN_POINT('',(1143,1819.3085622924814,0));
#95=VERTEX_POINT('',#94);
#96=CARTESIAN_POINT('',(1143,-1819.3085622924814,0));
#97=VERTEX_POINT('',#96);
#98=CARTESIAN_POINT('',(-1143,-1819.3085622924814,0));
#99=VERTEX_POINT('',#98);
#100=CARTESIAN_POINT('',(-1143,1819.3085622924814,0));
#101=VERTEX_POINT('',#100);
#102=CARTESIAN_POINT('',(-1475.74,-1863.0899999999997,2438.3999999999996));
#103=VERTEX_POINT('',#102);
#104=CARTESIAN_POINT('',(-1475.74,1863.0899999999997,2438.3999999999996));
#105=VERTEX_POINT('',#104);
#106=CARTESIAN_POINT('',(-2529.8399999999997,1863.0899999999997,2438.3999999999996));
#107=VERTEX_POINT('',#106);
#108=CARTESIAN_POINT('',(-2529.8399999999997,-1863.0899999999997,2438.3999999999996));
#109=VERTEX_POINT('',#108);
#110=CARTESIAN_POINT('',(-1475.74,-1863.0899999999997,2489.2));
#111=VERTEX_POINT('',#110);
#112=CARTESIAN_POINT('',(-1475.74,1863.0899999999997,2489.2));
#113=VERTEX_POINT('',#112);
#114=CARTESIAN_POINT('',(-2529.8399999999997,1863.0899999999997,2489.2));
#115=VERTEX_POINT('',#114);
#116=CARTESIAN_POINT('',(-2529.8399999999997,-1863.0899999999997,2489.2));
#117=VERTEX_POINT('',#116);
#118=CARTESIAN_POINT('',(2635.25,-1092.2,1282.6999999999998));
#119=VERTEX_POINT('',#118);
#120=CARTESIAN_POINT('',(2794,-1092.2,1282.6999999999998));
#121=VERTEX_POINT('',#120);
#122=CARTESIAN_POINT('',(2794,-1092.2,0));
#123=VERTEX_POINT('',#122);
#124=CARTESIAN_POINT('',(1270,-1092.2,0));
#125=VERTEX_POINT('',#124);
#126=CARTESIAN_POINT('',(2635.25,-1092.2,1155.7));
#127=VERTEX_POINT('',#126);
#128=CARTESIAN_POINT('',(2667,-1092.2,1155.7));
#129=VERTEX_POINT('',#128);
#130=CARTESIAN_POINT('',(2667,-1092.2,127));
#131=VERTEX_POINT('',#130);
#132=CARTESIAN_POINT('',(1270,-1092.2,127));
#133=VERTEX_POINT('',#132);
#134=CARTESIAN_POINT('',(2635.25,1092.2,1282.6999999999998));
#135=VERTEX_POINT('',#134);
#136=CARTESIAN_POINT('',(2794,1092.2,1282.6999999999998));
#137=VERTEX_POINT('',#136);
#138=CARTESIAN_POINT('',(2794,1092.2,0));
#139=VERTEX_POINT('',#138);
#140=CARTESIAN_POINT('',(1270,1092.2,0));
#141=VERTEX_POINT('',#140);
#142=CARTESIAN_POINT('',(2635.25,1092.2,1155.7));
#143=VERTEX_POINT('',#142);
#144=CARTESIAN_POINT('',(2667,1092.2,1155.7));
#145=VERTEX_POINT('',#144);
#146=CARTESIAN_POINT('',(2667,1092.2,127));
#147=VERTEX_POINT('',#146);
#148=CARTESIAN_POINT('',(1270,1092.2,127));
#149=VERTEX_POINT('',#148);
#150=CARTESIAN_POINT('',(-2635.25,1092.2,1282.6999999999998));
#151=VERTEX_POINT('',#150);
#152=CARTESIAN_POINT('',(-2794,1092.2,1282.6999999999998));
#153=VERTEX_POINT('',#152);
#154=CARTESIAN_POINT('',(-2794,1092.2,0));
#155=VERTEX_POINT('',#154);
#156=CARTESIAN_POINT('',(-1270,1092.2,0));
#157=VERTEX_POINT('',#156);
#158=CARTESIAN_POINT('',(-2635.25,1092.2,1155.7));
#159=VERTEX_POINT('',#158);
#160=CARTESIAN_POINT('',(-2667,1092.2,1155.7));
#161=VERTEX_POINT('',#160);
#162=CARTESIAN_POINT('',(-2667,1092.2,127));
#163=VERTEX_POINT('',#162);
#164=CARTESIAN_POINT('',(-1270,1092.2,127));
#165=VERTEX_POINT('',#164);
#166=CARTESIAN_POINT('',(-2635.25,-1092.2,1282.6999999999998));
#167=VERTEX_POINT('',#166);
#168=CARTESIAN_POINT('',(-2794,-1092.2,1282.6999999999998));
#169=VERTEX_POINT('',#168);
#170=CARTESIAN_POINT('',(-2794,-1092.2,0));
#171=VERTEX_POINT('',#170);
#172=CARTESIAN_POINT('',(-1270,-1092.2,0));
#173=VERTEX_POINT('',#172);
#174=CARTESIAN_POINT('',(-2635.25,-1092.2,1155.7));
#175=VERTEX_POINT('',#174);
#176=CARTESIAN_POINT('',(-2667,-1092.2,1155.7));
#177=VERTEX_POINT('',#176);
#178=CARTESIAN_POINT('',(-2667,-1092.2,127));
#179=VERTEX_POINT('',#178);
#180=CARTESIAN_POINT('',(-1270,-1092.2,127));
#181=VERTEX_POINT('',#180);
#182=STYLED_ITEM('',(#25),#183);
#183=FACE_SURFACE('',(#188),#184,.T.);
#184=PLANE('',#185);
#185=AXIS2_PLACEMENT_3D('',#58,#186,#187);
#186=DIRECTION('',(0,0,1));
#187=DIRECTION('',(1,0,0));
#188=FACE_BOUND('',#189,.T.);
#189=EDGE_LOOP('',(#190,#191,#192));
#190=ORIENTED_EDGE('',*,*,#193,.T.);
#191=ORIENTED_EDGE('',*,*,#194,.T.);
#192=ORIENTED_EDGE('',*,*,#195,.T.);
#193=EDGE_CURVE('',#59,#57,#196,.F.);
#194=EDGE_CURVE('',#57,#55,#197,.T.);
#195=EDGE_CURVE('',#55,#59,#198,.T.);
#196=LINE('',#58,#199);
#197=LINE('',#56,#200);
#198=LINE('',#54,#201);
#199=VECTOR('',#202,1.0);
#200=VECTOR('',#203,1.0);
#201=VECTOR('',#204,1.0);
#202=DIRECTION('',(1,0,0));
#203=DIRECTION('',(0,1,0));
#204=DIRECTION('',(-0.8011568082689923,-0.5984544832852713,0));
#205=STYLED_ITEM('',(#25),#206);
#206=FACE_SURFACE('',(#211),#207,.T.);
#207=PLANE('',#208);
#208=AXIS2_PLACEMENT_3D('',#60,#209,#210);
#209=DIRECTION('',(-0,0,1));
#210=DIRECTION('',(0,-1,0));
#211=FACE_BOUND('',#212,.T.);
#212=EDGE_LOOP('',(#213,#214,#215));
#213=ORIENTED_EDGE('',*,*,#216,.T.);
#214=ORIENTED_EDGE('',*,*,#217,.T.);
#215=ORIENTED_EDGE('',*,*,#218,.T.);
#216=EDGE_CURVE('',#61,#59,#219,.F.);
#217=EDGE_CURVE('',#59,#55,#220,.T.);
#218=EDGE_CURVE('',#55,#61,#221,.T.);
#219=LINE('',#60,#222);
#220=LINE('',#58,#223);
#221=LINE('',#54,#224);
#222=VECTOR('',#225,1.0);
#223=VECTOR('',#226,1.0);
#224=VECTOR('',#227,1.0);
#225=DIRECTION('',(0,-1,0));
#226=DIRECTION('',(0.8011568082689923,0.5984544832852713,0));
#227=DIRECTION('',(-1,0,0));
#228=STYLED_ITEM('',(#25),#229);
#229=FACE_SURFACE('',(#234),#230,.T.);
#230=PLANE('',#231);
#231=AXIS2_PLACEMENT_3D('',#92,#232,#233);
#232=DIRECTION('',(0,-0,-1));
#233=DIRECTION('',(0,-1,0));
#234=FACE_BOUND('',#235,.T.);
#235=EDGE_LOOP('',(#236,#237,#238));
#236=ORIENTED_EDGE('',*,*,#239,.T.);
#237=ORIENTED_EDGE('',*,*,#240,.T.);
#238=ORIENTED_EDGE('',*,*,#241,.T.);
#239=EDGE_CURVE('',#93,#91,#242,.F.);
#240=EDGE_CURVE('',#91,#83,#243,.T.);
#241=EDGE_CURVE('',#83,#93,#244,.T.);
#242=LINE('',#92,#245);
#243=LINE('',#90,#246);
#244=LINE('',#82,#247);
#245=VECTOR('',#248,1.0);
#246=VECTOR('',#249,1.0);
#247=VECTOR('',#250,1.0);
#248=DIRECTION('',(0,-1,0));
#249=DIRECTION('',(-1,0,0));
#250=DIRECTION('',(0.3462763264568722,0.9381325629864544,0));
#251=STYLED_ITEM('',(#25),#252);
#252=FACE_SURFACE('',(#257),#253,.T.);
#253=PLANE('',#254);
#254=AXIS2_PLACEMENT_3D('',#84,#255,#256);
#255=DIRECTION('',(0,0,-1));
#256=DIRECTION('',(1,0,0));
#257=FACE_BOUND('',#258,.T.);
#258=EDGE_LOOP('',(#259,#260,#261));
#259=ORIENTED_EDGE('',*,*,#262,.T.);
#260=ORIENTED_EDGE('',*,*,#263,.T.);
#261=ORIENTED_EDGE('',*,*,#264,.T.);
#262=EDGE_CURVE('',#85,#93,#265,.F.);
#263=EDGE_CURVE('',#93,#83,#266,.T.);
#264=EDGE_CURVE('',#83,#85,#267,.T.);
#265=LINE('',#84,#268);
#266=LINE('',#92,#269);
#267=LINE('',#82,#270);
#268=VECTOR('',#271,1.0);
#269=VECTOR('',#272,1.0);
#270=VECTOR('',#273,1.0);
#271=DIRECTION('',(1,0,0));
#272=DIRECTION('',(-0.3462763264568722,-0.9381325629864544,0));
#273=DIRECTION('',(0,1,0));
#274=STYLED_ITEM('',(#25),#275);
#275=FACE_SURFACE('',(#280),#276,.T.);
#276=PLANE('',#277);
#277=AXIS2_PLACEMENT_3D('',#78,#278,#279);
#278=DIRECTION('',(0,-0,-1));
#279=DIRECTION('',(0,-1,0));
#280=FACE_BOUND('',#281,.T.);
#281=EDGE_LOOP('',(#282,#283,#284));
#282=ORIENTED_EDGE('',*,*,#285,.T.);
#283=ORIENTED_EDGE('',*,*,#286,.T.);
#284=ORIENTED_EDGE('',*,*,#287,.T.);
#285=EDGE_CURVE('',#79,#81,#288,.F.);
#286=EDGE_CURVE('',#81,#89,#289,.T.);
#287=EDGE_CURVE('',#89,#79,#290,.T.);
#288=LINE('',#78,#291);
#289=LINE('',#80,#292);
#290=LINE('',#88,#293);
#291=VECTOR('',#294,1.0);
#292=VECTOR('',#295,1.0);
#293=VECTOR('',#296,1.0);
#294=DIRECTION('',(0,-1,0));
#295=DIRECTION('',(-1,0,0));
#296=DIRECTION('',(0.3462763264568722,0.9381325629864544,0));
#297=STYLED_ITEM('',(#25),#298);
#298=FACE_SURFACE('',(#303),#299,.T.);
#299=PLANE('',#300);
#300=AXIS2_PLACEMENT_3D('',#86,#301,#302);
#301=DIRECTION('',(0,0,-1));
#302=DIRECTION('',(1,0,0));
#303=FACE_BOUND('',#304,.T.);
#304=EDGE_LOOP('',(#305,#306,#307));
#305=ORIENTED_EDGE('',*,*,#308,.T.);
#306=ORIENTED_EDGE('',*,*,#309,.T.);
#307=ORIENTED_EDGE('',*,*,#310,.T.);
#308=EDGE_CURVE('',#87,#79,#311,.F.);
#309=EDGE_CURVE('',#79,#89,#312,.T.);
#310=EDGE_CURVE('',#89,#87,#313,.T.);
#311=LINE('',#86,#314);
#312=LINE('',#78,#315);
#313=LINE('',#88,#316);
#314=VECTOR('',#317,1.0);
#315=VECTOR('',#318,1.0);
#316=VECTOR('',#319,1.0);
#317=DIRECTION('',(1,0,0));
#318=DIRECTION('',(-0.3462763264568722,-0.9381325629864544,0));
#319=DIRECTION('',(0,1,0));
#320=STYLED_ITEM('',(#25),#321);
#321=FACE_SURFACE('',(#326),#322,.T.);
#322=PLANE('',#323);
#323=AXIS2_PLACEMENT_3D('',#64,#324,#325);
#324=DIRECTION('',(1,0,0));
#325=DIRECTION('',(0,1,0));
#326=FACE_BOUND('',#327,.T.);
#327=EDGE_LOOP('',(#328,#329,#330));
#328=ORIENTED_EDGE('',*,*,#331,.T.);
#329=ORIENTED_EDGE('',*,*,#332,.T.);
#330=ORIENTED_EDGE('',*,*,#333,.T.);
#331=EDGE_CURVE('',#65,#63,#334,.F.);
#332=EDGE_CURVE('',#63,#55,#335,.T.);
#333=EDGE_CURVE('',#55,#65,#336,.T.);
#334=LINE('',#64,#337);
#335=LINE('',#62,#338);
#336=LINE('',#54,#339);
#337=VECTOR('',#340,1.0);
#338=VECTOR('',#341,1.0);
#339=VECTOR('',#342,1.0);
#340=DIRECTION('',(0,1,0));
#341=DIRECTION('',(0,0,1));
#342=DIRECTION('',(0,-0.9603462267536241,-0.27881019486395536));
#343=STYLED_ITEM('',(#25),#344);
#344=FACE_SURFACE('',(#349),#345,.T.);
#345=PLANE('',#346);
#346=AXIS2_PLACEMENT_3D('',#66,#347,#348);
#347=DIRECTION('',(0,-1,0));
#348=DIRECTION('',(1,0,0));
#349=FACE_BOUND('',#350,.T.);
#350=EDGE_LOOP('',(#351,#352,#353));
#351=ORIENTED_EDGE('',*,*,#354,.T.);
#352=ORIENTED_EDGE('',*,*,#355,.T.);
#353=ORIENTED_EDGE('',*,*,#356,.T.);
#354=EDGE_CURVE('',#67,#65,#357,.F.);
#355=EDGE_CURVE('',#65,#57,#358,.T.);
#356=EDGE_CURVE('',#57,#67,#359,.T.);
#357=LINE('',#66,#360);
#358=LINE('',#64,#361);
#359=LINE('',#56,#362);
#360=VECTOR('',#363,1.0);
#361=VECTOR('',#364,1.0);
#362=VECTOR('',#365,1.0);
#363=DIRECTION('',(1,0,0));
#364=DIRECTION('',(0,0,1));
#365=DIRECTION('',(-0.9772825095963865,0,-0.21194078521367413));
#366=STYLED_ITEM('',(#25),#367);
#367=FACE_SURFACE('',(#372),#368,.T.);
#368=PLANE('',#369);
#369=AXIS2_PLACEMENT_3D('',#68,#370,#371);
#370=DIRECTION('',(-1,0,0));
#371=DIRECTION('',(0,-1,0));
#372=FACE_BOUND('',#373,.T.);
#373=EDGE_LOOP('',(#374,#375,#376));
#374=ORIENTED_EDGE('',*,*,#377,.T.);
#375=ORIENTED_EDGE('',*,*,#378,.T.);
#376=ORIENTED_EDGE('',*,*,#379,.T.);
#377=EDGE_CURVE('',#69,#67,#380,.F.);
#378=EDGE_CURVE('',#67,#59,#381,.T.);
#379=EDGE_CURVE('',#59,#69,#382,.T.);
#380=LINE('',#68,#383);
#381=LINE('',#66,#384);
#382=LINE('',#58,#385);
#383=VECTOR('',#386,1.0);
#384=VECTOR('',#387,1.0);
#385=VECTOR('',#388,1.0);
#386=DIRECTION('',(0,-1,0));
#387=DIRECTION('',(0,0,1));
#388=DIRECTION('',(0,0.9603462267536241,-0.27881019486395536));
#389=STYLED_ITEM('',(#25),#390);
#390=FACE_SURFACE('',(#395),#391,.T.);
#391=PLANE('',#392);
#392=AXIS2_PLACEMENT_3D('',#62,#393,#394);
#393=DIRECTION('',(0,1,0));
#394=DIRECTION('',(-1,0,0));
#395=FACE_BOUND('',#396,.T.);
#396=EDGE_LOOP('',(#397,#398,#399));
#397=ORIENTED_EDGE('',*,*,#400,.T.);
#398=ORIENTED_EDGE('',*,*,#401,.T.);
#399=ORIENTED_EDGE('',*,*,#402,.T.);
#400=EDGE_CURVE('',#63,#69,#403,.F.);
#401=EDGE_CURVE('',#69,#61,#404,.T.);
#402=EDGE_CURVE('',#61,#63,#405,.T.);
#403=LINE('',#62,#406);
#404=LINE('',#68,#407);
#405=LINE('',#60,#408);
#406=VECTOR('',#409,1.0);
#407=VECTOR('',#410,1.0);
#408=VECTOR('',#411,1.0);
#409=DIRECTION('',(-1,0,0));
#410=DIRECTION('',(0,0,1));
#411=DIRECTION('',(0.9772825095963865,0,-0.21194078521367413));
#412=STYLED_ITEM('',(#25),#413);
#413=FACE_SURFACE('',(#418),#414,.T.);
#414=PLANE('',#415);
#415=AXIS2_PLACEMENT_3D('',#72,#416,#417);
#416=DIRECTION('',(1,0,0));
#417=DIRECTION('',(0,1,0));
#418=FACE_BOUND('',#419,.T.);
#419=EDGE_LOOP('',(#420,#421,#422));
#420=ORIENTED_EDGE('',*,*,#423,.T.);
#421=ORIENTED_EDGE('',*,*,#424,.T.);
#422=ORIENTED_EDGE('',*,*,#425,.T.);
#423=EDGE_CURVE('',#73,#71,#426,.F.);
#424=EDGE_CURVE('',#71,#63,#427,.T.);
#425=EDGE_CURVE('',#63,#73,#428,.T.);
#426=LINE('',#72,#429);
#427=LINE('',#70,#430);
#428=LINE('',#62,#431);
#429=VECTOR('',#432,1.0);
#430=VECTOR('',#433,1.0);
#431=VECTOR('',#434,1.0);
#432=DIRECTION('',(0,1,0));
#433=DIRECTION('',(0,0,1));
#434=DIRECTION('',(0,-0.9992516213819532,-0.038680707924462675));
#435=STYLED_ITEM('',(#25),#436);
#436=FACE_SURFACE('',(#441),#437,.T.);
#437=PLANE('',#438);
#438=AXIS2_PLACEMENT_3D('',#74,#439,#440);
#439=DIRECTION('',(0,-1,0));
#440=DIRECTION('',(1,0,0));
#441=FACE_BOUND('',#442,.T.);
#442=EDGE_LOOP('',(#443,#444,#445));
#443=ORIENTED_EDGE('',*,*,#446,.T.);
#444=ORIENTED_EDGE('',*,*,#447,.T.);
#445=ORIENTED_EDGE('',*,*,#448,.T.);
#446=EDGE_CURVE('',#75,#73,#449,.F.);
#447=EDGE_CURVE('',#73,#65,#450,.T.);
#448=EDGE_CURVE('',#65,#75,#451,.T.);
#449=LINE('',#74,#452);
#450=LINE('',#72,#453);
#451=LINE('',#64,#454);
#452=VECTOR('',#455,1.0);
#453=VECTOR('',#456,1.0);
#454=VECTOR('',#457,1.0);
#455=DIRECTION('',(1,0,0));
#456=DIRECTION('',(0,0,1));
#457=DIRECTION('',(-0.9995822042026622,0,-0.028903581808269723));
#458=STYLED_ITEM('',(#25),#459);
#459=FACE_SURFACE('',(#464),#460,.T.);
#460=PLANE('',#461);
#461=AXIS2_PLACEMENT_3D('',#76,#462,#463);
#462=DIRECTION('',(-1,0,0));
#463=DIRECTION('',(0,-1,0));
#464=FACE_BOUND('',#465,.T.);
#465=EDGE_LOOP('',(#466,#467,#468));
#466=ORIENTED_EDGE('',*,*,#469,.T.);
#467=ORIENTED_EDGE('',*,*,#470,.T.);
#468=ORIENTED_EDGE('',*,*,#471,.T.);
#469=EDGE_CURVE('',#77,#75,#472,.F.);
#470=EDGE_CURVE('',#75,#67,#473,.T.);
#471=EDGE_CURVE('',#67,#77,#474,.T.);
#472=LINE('',#76,#475);
#473=LINE('',#74,#476);
#474=LINE('',#66,#477);
#475=VECTOR('',#478,1.0);
#476=VECTOR('',#479,1.0);
#477=VECTOR('',#480,1.0);
#478=DIRECTION('',(0,-1,0));
#479=DIRECTION('',(0,0,1));
#480=DIRECTION('',(0,0.9992516213819532,-0.038680707924462675));
#481=STYLED_ITEM('',(#25),#482);
#482=FACE_SURFACE('',(#487),#483,.T.);
#483=PLANE('',#484);
#484=AXIS2_PLACEMENT_3D('',#70,#485,#486);
#485=DIRECTION('',(0,1,0));
#486=DIRECTION('',(-1,0,0));
#487=FACE_BOUND('',#488,.T.);
#488=EDGE_LOOP('',(#489,#490,#491));
#489=ORIENTED_EDGE('',*,*,#492,.T.);
#490=ORIENTED_EDGE('',*,*,#493,.T.);
#491=ORIENTED_EDGE('',*,*,#494,.T.);
#492=EDGE_CURVE('',#71,#77,#495,.F.);
#493=EDGE_CURVE('',#77,#69,#496,.T.);
#494=EDGE_CURVE('',#69,#71,#497,.T.);
#495=LINE('',#70,#498);
#496=LINE('',#76,#499);
#497=LINE('',#68,#500);
#498=VECTOR('',#501,1.0);
#499=VECTOR('',#502,1.0);
#500=VECTOR('',#503,1.0);
#501=DIRECTION('',(-1,0,0));
#502=DIRECTION('',(0,0,1));
#503=DIRECTION('',(0.9995822042026622,0,-0.028903581808269723));
#504=STYLED_ITEM('',(#25),#505);
#505=FACE_SURFACE('',(#510),#506,.T.);
#506=PLANE('',#507);
#507=AXIS2_PLACEMENT_3D('',#80,#508,#509);
#508=DIRECTION('',(0.9882638679812882,0,-0.15275643110083068));
#509=DIRECTION('',(0,1,0));
#510=FACE_BOUND('',#511,.T.);
#511=EDGE_LOOP('',(#512,#513,#514));
#512=ORIENTED_EDGE('',*,*,#515,.T.);
#513=ORIENTED_EDGE('',*,*,#516,.T.);
#514=ORIENTED_EDGE('',*,*,#517,.T.);
#515=EDGE_CURVE('',#81,#79,#518,.F.);
#516=EDGE_CURVE('',#79,#71,#519,.T.);
#517=EDGE_CURVE('',#71,#81,#520,.T.);
#518=LINE('',#80,#521);
#519=LINE('',#78,#522);
#520=LINE('',#70,#523);
#521=VECTOR('',#524,1.0);
#522=VECTOR('',#525,1.0);
#523=VECTOR('',#526,1.0);
#524=DIRECTION('',(0,1,0));
#525=DIRECTION('',(0.15100477811954044,0.15100477811954044,0.9769314786463463));
#526=DIRECTION('',(-0.038139837859519535,-0.9683290584809114,-0.24674721329636373));
#527=STYLED_ITEM('',(#25),#528);
#528=FACE_SURFACE('',(#533),#529,.T.);
#529=PLANE('',#530);
#530=AXIS2_PLACEMENT_3D('',#82,#531,#532);
#531=DIRECTION('',(0,-0.9882638679812883,-0.15275643110083068));
#532=DIRECTION('',(1,0,0));
#533=FACE_BOUND('',#534,.T.);
#534=EDGE_LOOP('',(#535,#536,#537));
#535=ORIENTED_EDGE('',*,*,#538,.T.);
#536=ORIENTED_EDGE('',*,*,#539,.T.);
#537=ORIENTED_EDGE('',*,*,#540,.T.);
#538=EDGE_CURVE('',#83,#81,#541,.F.);
#539=EDGE_CURVE('',#81,#73,#542,.T.);
#540=EDGE_CURVE('',#73,#83,#543,.T.);
#541=LINE('',#82,#544);
#542=LINE('',#80,#545);
#543=LINE('',#72,#546);
#544=VECTOR('',#547,1.0);
#545=VECTOR('',#548,1.0);
#546=VECTOR('',#549,1.0);
#547=DIRECTION('',(1,0,0));
#548=DIRECTION('',(0.15100477811954044,-0.15100477811954044,0.9769314786463463));
#549=DIRECTION('',(-0.982297121134278,0.02861579574349614,-0.18513104019930324));
#550=STYLED_ITEM('',(#25),#551);
#551=FACE_SURFACE('',(#556),#552,.T.);
#552=PLANE('',#553);
#553=AXIS2_PLACEMENT_3D('',#84,#554,#555);
#554=DIRECTION('',(-0.9882638679812882,-0,-0.15275643110083068));
#555=DIRECTION('',(0,-1,0));
#556=FACE_BOUND('',#557,.T.);
#557=EDGE_LOOP('',(#558,#559,#560));
#558=ORIENTED_EDGE('',*,*,#561,.T.);
#559=ORIENTED_EDGE('',*,*,#562,.T.);
#560=ORIENTED_EDGE('',*,*,#563,.T.);
#561=EDGE_CURVE('',#85,#83,#564,.F.);
#562=EDGE_CURVE('',#83,#75,#565,.T.);
#563=EDGE_CURVE('',#75,#85,#566,.T.);
#564=LINE('',#84,#567);
#565=LINE('',#82,#568);
#566=LINE('',#74,#569);
#567=VECTOR('',#570,1.0);
#568=VECTOR('',#571,1.0);
#569=VECTOR('',#572,1.0);
#570=DIRECTION('',(0,-1,0));
#571=DIRECTION('',(-0.15100477811954044,-0.15100477811954044,0.9769314786463463));
#572=DIRECTION('',(0.038139837859519535,0.9683290584809114,-0.24674721329636373));
#573=STYLED_ITEM('',(#25),#574);
#574=FACE_SURFACE('',(#579),#575,.T.);
#575=PLANE('',#576);
#576=AXIS2_PLACEMENT_3D('',#78,#577,#578);
#577=DIRECTION('',(0,0.9882638679812883,-0.15275643110083068));
#578=DIRECTION('',(-1,0,0));
#579=FACE_BOUND('',#580,.T.);
#580=EDGE_LOOP('',(#581,#582,#583));
#581=ORIENTED_EDGE('',*,*,#584,.T.);
#582=ORIENTED_EDGE('',*,*,#585,.T.);
#583=ORIENTED_EDGE('',*,*,#586,.T.);
#584=EDGE_CURVE('',#79,#85,#587,.F.);
#585=EDGE_CURVE('',#85,#77,#588,.T.);
#586=EDGE_CURVE('',#77,#79,#589,.T.);
#587=LINE('',#78,#590);
#588=LINE('',#84,#591);
#589=LINE('',#76,#592);
#590=VECTOR('',#593,1.0);
#591=VECTOR('',#594,1.0);
#592=VECTOR('',#595,1.0);
#593=DIRECTION('',(-1,0,0));
#594=DIRECTION('',(-0.15100477811954044,0.15100477811954044,0.9769314786463463));
#595=DIRECTION('',(0.982297121134278,-0.02861579574349614,-0.18513104019930324));
#596=STYLED_ITEM('',(#25),#597);
#597=FACE_SURFACE('',(#602),#598,.T.);
#598=PLANE('',#599);
#599=AXIS2_PLACEMENT_3D('',#56,#600,#601);
#600=DIRECTION('',(1,-0,0));
#601=DIRECTION('',(0,0,-1));
#602=FACE_BOUND('',#603,.T.);
#603=EDGE_LOOP('',(#604,#605,#606));
#604=ORIENTED_EDGE('',*,*,#607,.T.);
#605=ORIENTED_EDGE('',*,*,#608,.T.);
#606=ORIENTED_EDGE('',*,*,#609,.T.);
#607=EDGE_CURVE('',#57,#65,#610,.F.);
#608=EDGE_CURVE('',#65,#55,#611,.T.);
#609=EDGE_CURVE('',#55,#57,#612,.T.);
#610=LINE('',#56,#613);
#611=LINE('',#64,#614);
#612=LINE('',#54,#615);
#613=VECTOR('',#616,1.0);
#614=VECTOR('',#617,1.0);
#615=VECTOR('',#618,1.0);
#616=DIRECTION('',(0,0,-1));
#617=DIRECTION('',(0,0.9603462267536241,0.27881019486395536));
#618=DIRECTION('',(0,-1,0));
#619=STYLED_ITEM('',(#25),#620);
#620=FACE_SURFACE('',(#625),#621,.T.);
#621=PLANE('',#622);
#622=AXIS2_PLACEMENT_3D('',#58,#623,#624);
#623=DIRECTION('',(0,-1,0));
#624=DIRECTION('',(0,0,-1));
#625=FACE_BOUND('',#626,.T.);
#626=EDGE_LOOP('',(#627,#628,#629));
#627=ORIENTED_EDGE('',*,*,#630,.T.);
#628=ORIENTED_EDGE('',*,*,#631,.T.);
#629=ORIENTED_EDGE('',*,*,#632,.T.);
#630=EDGE_CURVE('',#59,#67,#633,.F.);
#631=EDGE_CURVE('',#67,#57,#634,.T.);
#632=EDGE_CURVE('',#57,#59,#635,.T.);
#633=LINE('',#58,#636);
#634=LINE('',#66,#637);
#635=LINE('',#56,#638);
#636=VECTOR('',#639,1.0);
#637=VECTOR('',#640,1.0);
#638=VECTOR('',#641,1.0);
#639=DIRECTION('',(0,0,-1));
#640=DIRECTION('',(0.9772825095963865,0,0.21194078521367413));
#641=DIRECTION('',(-1,0,0));
#642=STYLED_ITEM('',(#25),#643);
#643=FACE_SURFACE('',(#648),#644,.T.);
#644=PLANE('',#645);
#645=AXIS2_PLACEMENT_3D('',#60,#646,#647);
#646=DIRECTION('',(-1,-0,-0));
#647=DIRECTION('',(0,0,-1));
#648=FACE_BOUND('',#649,.T.);
#649=EDGE_LOOP('',(#650,#651,#652));
#650=ORIENTED_EDGE('',*,*,#653,.T.);
#651=ORIENTED_EDGE('',*,*,#654,.T.);
#652=ORIENTED_EDGE('',*,*,#655,.T.);
#653=EDGE_CURVE('',#61,#69,#656,.F.);
#654=EDGE_CURVE('',#69,#59,#657,.T.);
#655=EDGE_CURVE('',#59,#61,#658,.T.);
#656=LINE('',#60,#659);
#657=LINE('',#68,#660);
#658=LINE('',#58,#661);
#659=VECTOR('',#662,1.0);
#660=VECTOR('',#663,1.0);
#661=VECTOR('',#664,1.0);
#662=DIRECTION('',(0,0,-1));
#663=DIRECTION('',(0,-0.9603462267536241,0.27881019486395536));
#664=DIRECTION('',(0,1,0));
#665=STYLED_ITEM('',(#25),#666);
#666=FACE_SURFACE('',(#671),#667,.T.);
#667=PLANE('',#668);
#668=AXIS2_PLACEMENT_3D('',#54,#669,#670);
#669=DIRECTION('',(0,1,0));
#670=DIRECTION('',(0,0,-1));
#671=FACE_BOUND('',#672,.T.);
#672=EDGE_LOOP('',(#673,#674,#675));
#673=ORIENTED_EDGE('',*,*,#676,.T.);
#674=ORIENTED_EDGE('',*,*,#677,.T.);
#675=ORIENTED_EDGE('',*,*,#678,.T.);
#676=EDGE_CURVE('',#55,#63,#679,.F.);
#677=EDGE_CURVE('',#63,#61,#680,.T.);
#678=EDGE_CURVE('',#61,#55,#681,.T.);
#679=LINE('',#54,#682);
#680=LINE('',#62,#683);
#681=LINE('',#60,#684);
#682=VECTOR('',#685,1.0);
#683=VECTOR('',#686,1.0);
#684=VECTOR('',#687,1.0);
#685=DIRECTION('',(0,0,-1));
#686=DIRECTION('',(-0.9772825095963865,0,0.21194078521367413));
#687=DIRECTION('',(1,0,0));
#688=STYLED_ITEM('',(#25),#689);
#689=FACE_SURFACE('',(#694),#690,.T.);
#690=PLANE('',#691);
#691=AXIS2_PLACEMENT_3D('',#64,#692,#693);
#692=DIRECTION('',(1,-0,0));
#693=DIRECTION('',(0,0,-1));
#694=FACE_BOUND('',#695,.T.);
#695=EDGE_LOOP('',(#696,#697,#698));
#696=ORIENTED_EDGE('',*,*,#699,.T.);
#697=ORIENTED_EDGE('',*,*,#700,.T.);
#698=ORIENTED_EDGE('',*,*,#701,.T.);
#699=EDGE_CURVE('',#65,#73,#702,.F.);
#700=EDGE_CURVE('',#73,#63,#703,.T.);
#701=EDGE_CURVE('',#63,#65,#704,.T.);
#702=LINE('',#64,#705);
#703=LINE('',#72,#706);
#704=LINE('',#62,#707);
#705=VECTOR('',#708,1.0);
#706=VECTOR('',#709,1.0);
#707=VECTOR('',#710,1.0);
#708=DIRECTION('',(0,0,-1));
#709=DIRECTION('',(0,0.9992516213819532,0.038680707924462675));
#710=DIRECTION('',(0,-1,0));
#711=STYLED_ITEM('',(#25),#712);
#712=FACE_SURFACE('',(#717),#713,.T.);
#713=PLANE('',#714);
#714=AXIS2_PLACEMENT_3D('',#66,#715,#716);
#715=DIRECTION('',(0,-1,0));
#716=DIRECTION('',(0,0,-1));
#717=FACE_BOUND('',#718,.T.);
#718=EDGE_LOOP('',(#719,#720,#721));
#719=ORIENTED_EDGE('',*,*,#722,.T.);
#720=ORIENTED_EDGE('',*,*,#723,.T.);
#721=ORIENTED_EDGE('',*,*,#724,.T.);
#722=EDGE_CURVE('',#67,#75,#725,.F.);
#723=EDGE_CURVE('',#75,#65,#726,.T.);
#724=EDGE_CURVE('',#65,#67,#727,.T.);
#725=LINE('',#66,#728);
#726=LINE('',#74,#729);
#727=LINE('',#64,#730);
#728=VECTOR('',#731,1.0);
#729=VECTOR('',#732,1.0);
#730=VECTOR('',#733,1.0);
#731=DIRECTION('',(0,0,-1));
#732=DIRECTION('',(0.9995822042026622,0,0.028903581808269723));
#733=DIRECTION('',(-1,0,0));
#734=STYLED_ITEM('',(#25),#735);
#735=FACE_SURFACE('',(#740),#736,.T.);
#736=PLANE('',#737);
#737=AXIS2_PLACEMENT_3D('',#68,#738,#739);
#738=DIRECTION('',(-1,-0,-0));
#739=DIRECTION('',(0,0,-1));
#740=FACE_BOUND('',#741,.T.);
#741=EDGE_LOOP('',(#742,#743,#744));
#742=ORIENTED_EDGE('',*,*,#745,.T.);
#743=ORIENTED_EDGE('',*,*,#746,.T.);
#744=ORIENTED_EDGE('',*,*,#747,.T.);
#745=EDGE_CURVE('',#69,#77,#748,.F.);
#746=EDGE_CURVE('',#77,#67,#749,.T.);
#747=EDGE_CURVE('',#67,#69,#750,.T.);
#748=LINE('',#68,#751);
#749=LINE('',#76,#752);
#750=LINE('',#66,#753);
#751=VECTOR('',#754,1.0);
#752=VECTOR('',#755,1.0);
#753=VECTOR('',#756,1.0);
#754=DIRECTION('',(0,0,-1));
#755=DIRECTION('',(0,-0.9992516213819532,0.038680707924462675));
#756=DIRECTION('',(0,1,0));
#757=STYLED_ITEM('',(#25),#758);
#758=FACE_SURFACE('',(#763),#759,.T.);
#759=PLANE('',#760);
#760=AXIS2_PLACEMENT_3D('',#62,#761,#762);
#761=DIRECTION('',(0,1,0));
#762=DIRECTION('',(0,0,-1));
#763=FACE_BOUND('',#764,.T.);
#764=EDGE_LOOP('',(#765,#766,#767));
#765=ORIENTED_EDGE('',*,*,#768,.T.);
#766=ORIENTED_EDGE('',*,*,#769,.T.);
#767=ORIENTED_EDGE('',*,*,#770,.T.);
#768=EDGE_CURVE('',#63,#71,#771,.F.);
#769=EDGE_CURVE('',#71,#69,#772,.T.);
#770=EDGE_CURVE('',#69,#63,#773,.T.);
#771=LINE('',#62,#774);
#772=LINE('',#70,#775);
#773=LINE('',#68,#776);
#774=VECTOR('',#777,1.0);
#775=VECTOR('',#778,1.0);
#776=VECTOR('',#779,1.0);
#777=DIRECTION('',(0,0,-1));
#778=DIRECTION('',(-0.9995822042026622,0,0.028903581808269723));
#779=DIRECTION('',(1,0,0));
#780=STYLED_ITEM('',(#25),#781);
#781=FACE_SURFACE('',(#786),#782,.T.);
#782=PLANE('',#783);
#783=AXIS2_PLACEMENT_3D('',#72,#784,#785);
#784=DIRECTION('',(0.9882638679812882,0,-0.15275643110083068));
#785=DIRECTION('',(-0.15100477811954044,0.15100477811954044,-0.9769314786463463));
#786=FACE_BOUND('',#787,.T.);
#787=EDGE_LOOP('',(#788,#789,#790));
#788=ORIENTED_EDGE('',*,*,#791,.T.);
#789=ORIENTED_EDGE('',*,*,#792,.T.);
#790=ORIENTED_EDGE('',*,*,#793,.T.);
#791=EDGE_CURVE('',#73,#81,#794,.F.);
#792=EDGE_CURVE('',#81,#71,#795,.T.);
#793=EDGE_CURVE('',#71,#73,#796,.T.);
#794=LINE('',#72,#797);
#795=LINE('',#80,#798);
#796=LINE('',#70,#799);
#797=VECTOR('',#800,1.0);
#798=VECTOR('',#801,1.0);
#799=VECTOR('',#802,1.0);
#800=DIRECTION('',(-0.15100477811954044,0.15100477811954044,-0.9769314786463463));
#801=DIRECTION('',(0.038139837859519535,0.9683290584809114,0.24674721329636373));
#802=DIRECTION('',(0,-1,0));
#803=STYLED_ITEM('',(#25),#804);
#804=FACE_SURFACE('',(#809),#805,.T.);
#805=PLANE('',#806);
#806=AXIS2_PLACEMENT_3D('',#74,#807,#808);
#807=DIRECTION('',(0,-0.9882638679812883,-0.15275643110083065));
#808=DIRECTION('',(0.15100477811954044,0.15100477811954044,-0.9769314786463463));
#809=FACE_BOUND('',#810,.T.);
#810=EDGE_LOOP('',(#811,#812,#813));
#811=ORIENTED_EDGE('',*,*,#814,.T.);
#812=ORIENTED_EDGE('',*,*,#815,.T.);
#813=ORIENTED_EDGE('',*,*,#816,.T.);
#814=EDGE_CURVE('',#75,#83,#817,.F.);
#815=EDGE_CURVE('',#83,#73,#818,.T.);
#816=EDGE_CURVE('',#73,#75,#819,.T.);
#817=LINE('',#74,#820);
#818=LINE('',#82,#821);
#819=LINE('',#72,#822);
#820=VECTOR('',#823,1.0);
#821=VECTOR('',#824,1.0);
#822=VECTOR('',#825,1.0);
#823=DIRECTION('',(0.15100477811954044,0.15100477811954044,-0.9769314786463463));
#824=DIRECTION('',(0.982297121134278,-0.02861579574349614,0.18513104019930324));
#825=DIRECTION('',(-1,0,0));
#826=STYLED_ITEM('',(#25),#827);
#827=FACE_SURFACE('',(#832),#828,.T.);
#828=PLANE('',#829);
#829=AXIS2_PLACEMENT_3D('',#76,#830,#831);
#830=DIRECTION('',(-0.9882638679812882,-0,-0.15275643110083068));
#831=DIRECTION('',(0.15100477811954044,-0.15100477811954044,-0.9769314786463463));
#832=FACE_BOUND('',#833,.T.);
#833=EDGE_LOOP('',(#834,#835,#836));
#834=ORIENTED_EDGE('',*,*,#837,.T.);
#835=ORIENTED_EDGE('',*,*,#838,.T.);
#836=ORIENTED_EDGE('',*,*,#839,.T.);
#837=EDGE_CURVE('',#77,#85,#840,.F.);
#838=EDGE_CURVE('',#85,#75,#841,.T.);
#839=EDGE_CURVE('',#75,#77,#842,.T.);
#840=LINE('',#76,#843);
#841=LINE('',#84,#844);
#842=LINE('',#74,#845);
#843=VECTOR('',#846,1.0);
#844=VECTOR('',#847,1.0);
#845=VECTOR('',#848,1.0);
#846=DIRECTION('',(0.15100477811954044,-0.15100477811954044,-0.9769314786463463));
#847=DIRECTION('',(-0.038139837859519535,-0.9683290584809114,0.24674721329636373));
#848=DIRECTION('',(0,1,0));
#849=STYLED_ITEM('',(#25),#850);
#850=FACE_SURFACE('',(#855),#851,.T.);
#851=PLANE('',#852);
#852=AXIS2_PLACEMENT_3D('',#70,#853,#854);
#853=DIRECTION('',(0,0.9882638679812883,-0.15275643110083065));
#854=DIRECTION('',(-0.15100477811954044,-0.15100477811954044,-0.9769314786463463));
#855=FACE_BOUND('',#856,.T.);
#856=EDGE_LOOP('',(#857,#858,#859));
#857=ORIENTED_EDGE('',*,*,#860,.T.);
#858=ORIENTED_EDGE('',*,*,#861,.T.);
#859=ORIENTED_EDGE('',*,*,#862,.T.);
#860=EDGE_CURVE('',#71,#79,#863,.F.);
#861=EDGE_CURVE('',#79,#77,#864,.T.);
#862=EDGE_CURVE('',#77,#71,#865,.T.);
#863=LINE('',#70,#866);
#864=LINE('',#78,#867);
#865=LINE('',#76,#868);
#866=VECTOR('',#869,1.0);
#867=VECTOR('',#870,1.0);
#868=VECTOR('',#871,1.0);
#869=DIRECTION('',(-0.15100477811954044,-0.15100477811954044,-0.9769314786463463));
#870=DIRECTION('',(-0.982297121134278,0.02861579574349614,0.18513104019930324));
#871=DIRECTION('',(1,0,0));
#872=STYLED_ITEM('',(#25),#873);
#873=FACE_SURFACE('',(#878),#874,.T.);
#874=PLANE('',#875);
#875=AXIS2_PLACEMENT_3D('',#100,#876,#877);
#876=DIRECTION('',(0,0,-1));
#877=DIRECTION('',(0.5319829121308725,-0.8467550892677034,0));
#878=FACE_BOUND('',#879,.T.);
#879=EDGE_LOOP('',(#880,#881,#882));
#880=ORIENTED_EDGE('',*,*,#883,.T.);
#881=ORIENTED_EDGE('',*,*,#884,.T.);
#882=ORIENTED_EDGE('',*,*,#885,.T.);
#883=EDGE_CURVE('',#101,#97,#886,.F.);
#884=EDGE_CURVE('',#97,#99,#887,.T.);
#885=EDGE_CURVE('',#99,#101,#888,.T.);
#886=LINE('',#100,#889);
#887=LINE('',#96,#890);
#888=LINE('',#98,#891);
#889=VECTOR('',#892,1.0);
#890=VECTOR('',#893,1.0);
#891=VECTOR('',#894,1.0);
#892=DIRECTION('',(0.5319829121308725,-0.8467550892677034,0));
#893=DIRECTION('',(-1,0,0));
#894=DIRECTION('',(0,1,0));
#895=STYLED_ITEM('',(#25),#896);
#896=FACE_SURFACE('',(#901),#897,.T.);
#897=PLANE('',#898);
#898=AXIS2_PLACEMENT_3D('',#94,#899,#900);
#899=DIRECTION('',(-0,-0,-1));
#900=DIRECTION('',(0,-1,0));
#901=FACE_BOUND('',#902,.T.);
#902=EDGE_LOOP('',(#903,#904,#905));
#903=ORIENTED_EDGE('',*,*,#906,.T.);
#904=ORIENTED_EDGE('',*,*,#907,.T.);
#905=ORIENTED_EDGE('',*,*,#908,.T.);
#906=EDGE_CURVE('',#95,#97,#909,.F.);
#907=EDGE_CURVE('',#97,#101,#910,.T.);
#908=EDGE_CURVE('',#101,#95,#911,.T.);
#909=LINE('',#94,#912);
#910=LINE('',#96,#913);
#911=LINE('',#100,#914);
#912=VECTOR('',#915,1.0);
#913=VECTOR('',#916,1.0);
#914=VECTOR('',#917,1.0);
#915=DIRECTION('',(0,-1,0));
#916=DIRECTION('',(-0.5319829121308725,0.8467550892677034,0));
#917=DIRECTION('',(1,0,0));
#918=STYLED_ITEM('',(#25),#919);
#919=FACE_SURFACE('',(#924),#920,.T.);
#920=PLANE('',#921);
#921=AXIS2_PLACEMENT_3D('',#96,#922,#923);
#922=DIRECTION('',(1,0,0));
#923=DIRECTION('',(0,1,0));
#924=FACE_BOUND('',#925,.T.);
#925=EDGE_LOOP('',(#926,#927,#928));
#926=ORIENTED_EDGE('',*,*,#929,.T.);
#927=ORIENTED_EDGE('',*,*,#930,.T.);
#928=ORIENTED_EDGE('',*,*,#931,.T.);
#929=EDGE_CURVE('',#97,#95,#932,.F.);
#930=EDGE_CURVE('',#95,#87,#933,.T.);
#931=EDGE_CURVE('',#87,#97,#934,.T.);
#932=LINE('',#96,#935);
#933=LINE('',#94,#936);
#934=LINE('',#86,#937);
#935=VECTOR('',#938,1.0);
#936=VECTOR('',#939,1.0);
#937=VECTOR('',#940,1.0);
#938=DIRECTION('',(0,1,0));
#939=DIRECTION('',(0,0,1));
#940=DIRECTION('',(0,-0.9988082534434116,-0.04880648372216274));
#941=STYLED_ITEM('',(#25),#942);
#942=FACE_SURFACE('',(#947),#943,.T.);
#943=PLANE('',#944);
#944=AXIS2_PLACEMENT_3D('',#98,#945,#946);
#945=DIRECTION('',(0,-1,0));
#946=DIRECTION('',(1,0,0));
#947=FACE_BOUND('',#948,.T.);
#948=EDGE_LOOP('',(#949,#950,#951));
#949=ORIENTED_EDGE('',*,*,#952,.T.);
#950=ORIENTED_EDGE('',*,*,#953,.T.);
#951=ORIENTED_EDGE('',*,*,#954,.T.);
#952=EDGE_CURVE('',#99,#97,#955,.F.);
#953=EDGE_CURVE('',#97,#89,#956,.T.);
#954=EDGE_CURVE('',#89,#99,#957,.T.);
#955=LINE('',#98,#958);
#956=LINE('',#96,#959);
#957=LINE('',#88,#960);
#958=VECTOR('',#961,1.0);
#959=VECTOR('',#962,1.0);
#960=VECTOR('',#963,1.0);
#961=DIRECTION('',(1,0,0));
#962=DIRECTION('',(0,0,1));
#963=DIRECTION('',(-0.9969889629624744,0,-0.07754358600819244));
#964=STYLED_ITEM('',(#25),#965);
#965=FACE_SURFACE('',(#970),#966,.T.);
#966=PLANE('',#967);
#967=AXIS2_PLACEMENT_3D('',#100,#968,#969);
#968=DIRECTION('',(-1,0,0));
#969=DIRECTION('',(0,-1,0));
#970=FACE_BOUND('',#971,.T.);
#971=EDGE_LOOP('',(#972,#973,#974));
#972=ORIENTED_EDGE('',*,*,#975,.T.);
#973=ORIENTED_EDGE('',*,*,#976,.T.);
#974=ORIENTED_EDGE('',*,*,#977,.T.);
#975=EDGE_CURVE('',#101,#99,#978,.F.);
#976=EDGE_CURVE('',#99,#91,#979,.T.);
#977=EDGE_CURVE('',#91,#101,#980,.T.);
#978=LINE('',#100,#981);
#979=LINE('',#98,#982);
#980=LINE('',#90,#983);
#981=VECTOR('',#984,1.0);
#982=VECTOR('',#985,1.0);
#983=VECTOR('',#986,1.0);
#984=DIRECTION('',(0,-1,0));
#985=DIRECTION('',(0,0,1));
#986=DIRECTION('',(0,0.9988082534434116,-0.04880648372216274));
#987=STYLED_ITEM('',(#25),#988);
#988=FACE_SURFACE('',(#993),#989,.T.);
#989=PLANE('',#990);
#990=AXIS2_PLACEMENT_3D('',#94,#991,#992);
#991=DIRECTION('',(0,1,0));
#992=DIRECTION('',(-1,0,0));
#993=FACE_BOUND('',#994,.T.);
#994=EDGE_LOOP('',(#995,#996,#997));
#995=ORIENTED_EDGE('',*,*,#998,.T.);
#996=ORIENTED_EDGE('',*,*,#999,.T.);
#997=ORIENTED_EDGE('',*,*,#1000,.T.);
#998=EDGE_CURVE('',#95,#101,#1001,.F.);
#999=EDGE_CURVE('',#101,#93,#1002,.T.);
#1000=EDGE_CURVE('',#93,#95,#1003,.T.);
#1001=LINE('',#94,#1004);
#1002=LINE('',#100,#1005);
#1003=LINE('',#92,#1006);
#1004=VECTOR('',#1007,1.0);
#1005=VECTOR('',#1008,1.0);
#1006=VECTOR('',#1009,1.0);
#1007=DIRECTION('',(-1,0,0));
#1008=DIRECTION('',(0,0,1));
#1009=DIRECTION('',(0.9969889629624744,0,-0.07754358600819244));
#1010=STYLED_ITEM('',(#25),#1011);
#1011=FACE_SURFACE('',(#1016),#1012,.T.);
#1012=PLANE('',#1013);
#1013=AXIS2_PLACEMENT_3D('',#96,#1014,#1015);
#1014=DIRECTION('',(1,0,0));
#1015=DIRECTION('',(0,0.9988082534434116,0.04880648372216274));
#1016=FACE_BOUND('',#1017,.T.);
#1017=EDGE_LOOP('',(#1018,#1019,#1020));
#1018=ORIENTED_EDGE('',*,*,#1021,.T.);
#1019=ORIENTED_EDGE('',*,*,#1022,.T.);
#1020=ORIENTED_EDGE('',*,*,#1023,.T.);
#1021=EDGE_CURVE('',#97,#87,#1024,.F.);
#1022=EDGE_CURVE('',#87,#89,#1025,.T.);
#1023=EDGE_CURVE('',#89,#97,#1026,.T.);
#1024=LINE('',#96,#1027);
#1025=LINE('',#86,#1028);
#1026=LINE('',#88,#1029);
#1027=VECTOR('',#1030,1.0);
#1028=VECTOR('',#1031,1.0);
#1029=VECTOR('',#1032,1.0);
#1030=DIRECTION('',(0,0.9988082534434116,0.04880648372216274));
#1031=DIRECTION('',(0,-1,0));
#1032=DIRECTION('',(0,0,-1));
#1033=STYLED_ITEM('',(#25),#1034);
#1034=FACE_SURFACE('',(#1039),#1035,.T.);
#1035=PLANE('',#1036);
#1036=AXIS2_PLACEMENT_3D('',#98,#1037,#1038);
#1037=DIRECTION('',(0,-1,0));
#1038=DIRECTION('',(0.9969889629624744,0,0.07754358600819244));
#1039=FACE_BOUND('',#1040,.T.);
#1040=EDGE_LOOP('',(#1041,#1042,#1043));
#1041=ORIENTED_EDGE('',*,*,#1044,.T.);
#1042=ORIENTED_EDGE('',*,*,#1045,.T.);
#1043=ORIENTED_EDGE('',*,*,#1046,.T.);
#1044=EDGE_CURVE('',#99,#89,#1047,.F.);
#1045=EDGE_CURVE('',#89,#91,#1048,.T.);
#1046=EDGE_CURVE('',#91,#99,#1049,.T.);
#1047=LINE('',#98,#1050);
#1048=LINE('',#88,#1051);
#1049=LINE('',#90,#1052);
#1050=VECTOR('',#1053,1.0);
#1051=VECTOR('',#1054,1.0);
#1052=VECTOR('',#1055,1.0);
#1053=DIRECTION('',(0.9969889629624744,0,0.07754358600819244));
#1054=DIRECTION('',(-1,0,0));
#1055=DIRECTION('',(0,0,-1));
#1056=STYLED_ITEM('',(#25),#1057);
#1057=FACE_SURFACE('',(#1062),#1058,.T.);
#1058=PLANE('',#1059);
#1059=AXIS2_PLACEMENT_3D('',#100,#1060,#1061);
#1060=DIRECTION('',(-1,0,0));
#1061=DIRECTION('',(0,-0.9988082534434116,0.04880648372216274));
#1062=FACE_BOUND('',#1063,.T.);
#1063=EDGE_LOOP('',(#1064,#1065,#1066));
#1064=ORIENTED_EDGE('',*,*,#1067,.T.);
#1065=ORIENTED_EDGE('',*,*,#1068,.T.);
#1066=ORIENTED_EDGE('',*,*,#1069,.T.);
#1067=EDGE_CURVE('',#101,#91,#1070,.F.);
#1068=EDGE_CURVE('',#91,#93,#1071,.T.);
#1069=EDGE_CURVE('',#93,#101,#1072,.T.);
#1070=LINE('',#100,#1073);
#1071=LINE('',#90,#1074);
#1072=LINE('',#92,#1075);
#1073=VECTOR('',#1076,1.0);
#1074=VECTOR('',#1077,1.0);
#1075=VECTOR('',#1078,1.0);
#1076=DIRECTION('',(0,-0.9988082534434116,0.04880648372216274));
#1077=DIRECTION('',(0,1,0));
#1078=DIRECTION('',(0,0,-1));
#1079=STYLED_ITEM('',(#25),#1080);
#1080=FACE_SURFACE('',(#1085),#1081,.T.);
#1081=PLANE('',#1082);
#1082=AXIS2_PLACEMENT_3D('',#94,#1083,#1084);
#1083=DIRECTION('',(0,1,-0));
#1084=DIRECTION('',(-0.9969889629624744,0,0.07754358600819244));
#1085=FACE_BOUND('',#1086,.T.);
#1086=EDGE_LOOP('',(#1087,#1088,#1089));
#1087=ORIENTED_EDGE('',*,*,#1090,.T.);
#1088=ORIENTED_EDGE('',*,*,#1091,.T.);
#1089=ORIENTED_EDGE('',*,*,#1092,.T.);
#1090=EDGE_CURVE('',#95,#93,#1093,.F.);
#1091=EDGE_CURVE('',#93,#87,#1094,.T.);
#1092=EDGE_CURVE('',#87,#95,#1095,.T.);
#1093=LINE('',#94,#1096);
#1094=LINE('',#92,#1097);
#1095=LINE('',#86,#1098);
#1096=VECTOR('',#1099,1.0);
#1097=VECTOR('',#1100,1.0);
#1098=VECTOR('',#1101,1.0);
#1099=DIRECTION('',(-0.9969889629624744,0,0.07754358600819244));
#1100=DIRECTION('',(1,0,0));
#1101=DIRECTION('',(0,0,-1));
#1102=STYLED_ITEM('',(#32),#1103);
#1103=FACE_SURFACE('',(#1108),#1104,.T.);
#1104=PLANE('',#1105);
#1105=AXIS2_PLACEMENT_3D('',#108,#1106,#1107);
#1106=DIRECTION('',(0,0,-1));
#1107=DIRECTION('',(0.27220788279309655,0.9622384676083678,0));
#1108=FACE_BOUND('',#1109,.T.);
#1109=EDGE_LOOP('',(#1110,#1111,#1112));
#1110=ORIENTED_EDGE('',*,*,#1113,.T.);
#1111=ORIENTED_EDGE('',*,*,#1114,.T.);
#1112=ORIENTED_EDGE('',*,*,#1115,.T.);
#1113=EDGE_CURVE('',#109,#105,#1116,.F.);
#1114=EDGE_CURVE('',#105,#103,#1117,.T.);
#1115=EDGE_CURVE('',#103,#109,#1118,.T.);
#1116=LINE('',#108,#1119);
#1117=LINE('',#104,#1120);
#1118=LINE('',#102,#1121);
#1119=VECTOR('',#1122,1.0);
#1120=VECTOR('',#1123,1.0);
#1121=VECTOR('',#1124,1.0);
#1122=DIRECTION('',(0.27220788279309655,0.9622384676083678,0));
#1123=DIRECTION('',(0,-1,0));
#1124=DIRECTION('',(-1,0,0));
#1125=STYLED_ITEM('',(#32),#1126);
#1126=FACE_SURFACE('',(#1131),#1127,.T.);
#1127=PLANE('',#1128);
#1128=AXIS2_PLACEMENT_3D('',#108,#1129,#1130);
#1129=DIRECTION('',(0,0,-1));
#1130=DIRECTION('',(0,1,0));
#1131=FACE_BOUND('',#1132,.T.);
#1132=EDGE_LOOP('',(#1133,#1134,#1135));
#1133=ORIENTED_EDGE('',*,*,#1136,.T.);
#1134=ORIENTED_EDGE('',*,*,#1137,.T.);
#1135=ORIENTED_EDGE('',*,*,#1138,.T.);
#1136=EDGE_CURVE('',#109,#107,#1139,.F.);
#1137=EDGE_CURVE('',#107,#105,#1140,.T.);
#1138=EDGE_CURVE('',#105,#109,#1141,.T.);
#1139=LINE('',#108,#1142);
#1140=LINE('',#106,#1143);
#1141=LINE('',#104,#1144);
#1142=VECTOR('',#1145,1.0);
#1143=VECTOR('',#1146,1.0);
#1144=VECTOR('',#1147,1.0);
#1145=DIRECTION('',(0,1,0));
#1146=DIRECTION('',(1,0,0));
#1147=DIRECTION('',(-0.27220788279309655,-0.9622384676083678,0));
#1148=STYLED_ITEM('',(#32),#1149);
#1149=FACE_SURFACE('',(#1154),#1150,.T.);
#1150=PLANE('',#1151);
#1151=AXIS2_PLACEMENT_3D('',#104,#1152,#1153);
#1152=DIRECTION('',(1,0,-0));
#1153=DIRECTION('',(0,0,1));
#1154=FACE_BOUND('',#1155,.T.);
#1155=EDGE_LOOP('',(#1156,#1157,#1158));
#1156=ORIENTED_EDGE('',*,*,#1159,.T.);
#1157=ORIENTED_EDGE('',*,*,#1160,.T.);
#1158=ORIENTED_EDGE('',*,*,#1161,.T.);
#1159=EDGE_CURVE('',#105,#113,#1162,.F.);
#1160=EDGE_CURVE('',#113,#103,#1163,.T.);
#1161=EDGE_CURVE('',#103,#105,#1164,.T.);
#1162=LINE('',#104,#1165);
#1163=LINE('',#112,#1166);
#1164=LINE('',#102,#1167);
#1165=VECTOR('',#1168,1.0);
#1166=VECTOR('',#1169,1.0);
#1167=VECTOR('',#1170,1.0);
#1168=DIRECTION('',(0,0,1));
#1169=DIRECTION('',(0,-0.9999070799932392,-0.01363199836391606));
#1170=DIRECTION('',(0,1,0));
#1171=STYLED_ITEM('',(#32),#1172);
#1172=FACE_SURFACE('',(#1177),#1173,.T.);
#1173=PLANE('',#1174);
#1174=AXIS2_PLACEMENT_3D('',#106,#1175,#1176);
#1175=DIRECTION('',(0,1,0));
#1176=DIRECTION('',(0,0,1));
#1177=FACE_BOUND('',#1178,.T.);
#1178=EDGE_LOOP('',(#1179,#1180,#1181));
#1179=ORIENTED_EDGE('',*,*,#1182,.T.);
#1180=ORIENTED_EDGE('',*,*,#1183,.T.);
#1181=ORIENTED_EDGE('',*,*,#1184,.T.);
#1182=EDGE_CURVE('',#107,#115,#1185,.F.);
#1183=EDGE_CURVE('',#115,#105,#1186,.T.);
#1184=EDGE_CURVE('',#105,#107,#1187,.T.);
#1185=LINE('',#106,#1188);
#1186=LINE('',#114,#1189);
#1187=LINE('',#104,#1190);
#1188=VECTOR('',#1191,1.0);
#1189=VECTOR('',#1192,1.0);
#1190=VECTOR('',#1193,1.0);
#1191=DIRECTION('',(0,0,1));
#1192=DIRECTION('',(0.998840747328026,0,-0.048136903485688186));
#1193=DIRECTION('',(-1,0,0));
#1194=STYLED_ITEM('',(#32),#1195);
#1195=FACE_SURFACE('',(#1200),#1196,.T.);
#1196=PLANE('',#1197);
#1197=AXIS2_PLACEMENT_3D('',#108,#1198,#1199);
#1198=DIRECTION('',(-1,0,0));
#1199=DIRECTION('',(0,0,1));
#1200=FACE_BOUND('',#1201,.T.);
#1201=EDGE_LOOP('',(#1202,#1203,#1204));
#1202=ORIENTED_EDGE('',*,*,#1205,.T.);
#1203=ORIENTED_EDGE('',*,*,#1206,.T.);
#1204=ORIENTED_EDGE('',*,*,#1207,.T.);
#1205=EDGE_CURVE('',#109,#117,#1208,.F.);
#1206=EDGE_CURVE('',#117,#107,#1209,.T.);
#1207=EDGE_CURVE('',#107,#109,#1210,.T.);
#1208=LINE('',#108,#1211);
#1209=LINE('',#116,#1212);
#1210=LINE('',#106,#1213);
#1211=VECTOR('',#1214,1.0);
#1212=VECTOR('',#1215,1.0);
#1213=VECTOR('',#1216,1.0);
#1214=DIRECTION('',(0,0,1));
#1215=DIRECTION('',(0,0.9999070799932392,-0.01363199836391606));
#1216=DIRECTION('',(0,-1,0));
#1217=STYLED_ITEM('',(#32),#1218);
#1218=FACE_SURFACE('',(#1223),#1219,.T.);
#1219=PLANE('',#1220);
#1220=AXIS2_PLACEMENT_3D('',#102,#1221,#1222);
#1221=DIRECTION('',(0,-1,0));
#1222=DIRECTION('',(0,0,1));
#1223=FACE_BOUND('',#1224,.T.);
#1224=EDGE_LOOP('',(#1225,#1226,#1227));
#1225=ORIENTED_EDGE('',*,*,#1228,.T.);
#1226=ORIENTED_EDGE('',*,*,#1229,.T.);
#1227=ORIENTED_EDGE('',*,*,#1230,.T.);
#1228=EDGE_CURVE('',#103,#111,#1231,.F.);
#1229=EDGE_CURVE('',#111,#109,#1232,.T.);
#1230=EDGE_CURVE('',#109,#103,#1233,.T.);
#1231=LINE('',#102,#1234);
#1232=LINE('',#110,#1235);
#1233=LINE('',#108,#1236);
#1234=VECTOR('',#1237,1.0);
#1235=VECTOR('',#1238,1.0);
#1236=VECTOR('',#1239,1.0);
#1237=DIRECTION('',(0,0,1));
#1238=DIRECTION('',(-0.998840747328026,0,-0.048136903485688186));
#1239=DIRECTION('',(1,0,0));
#1240=STYLED_ITEM('',(#32),#1241);
#1241=FACE_SURFACE('',(#1246),#1242,.T.);
#1242=PLANE('',#1243);
#1243=AXIS2_PLACEMENT_3D('',#102,#1244,#1245);
#1244=DIRECTION('',(1,0,0));
#1245=DIRECTION('',(0,0.9999070799932392,0.01363199836391606));
#1246=FACE_BOUND('',#1247,.T.);
#1247=EDGE_LOOP('',(#1248,#1249,#1250));
#1248=ORIENTED_EDGE('',*,*,#1251,.T.);
#1249=ORIENTED_EDGE('',*,*,#1252,.T.);
#1250=ORIENTED_EDGE('',*,*,#1253,.T.);
#1251=EDGE_CURVE('',#103,#113,#1254,.F.);
#1252=EDGE_CURVE('',#113,#111,#1255,.T.);
#1253=EDGE_CURVE('',#111,#103,#1256,.T.);
#1254=LINE('',#102,#1257);
#1255=LINE('',#112,#1258);
#1256=LINE('',#110,#1259);
#1257=VECTOR('',#1260,1.0);
#1258=VECTOR('',#1261,1.0);
#1259=VECTOR('',#1262,1.0);
#1260=DIRECTION('',(0,0.9999070799932392,0.01363199836391606));
#1261=DIRECTION('',(0,-1,0));
#1262=DIRECTION('',(0,0,-1));
#1263=STYLED_ITEM('',(#32),#1264);
#1264=FACE_SURFACE('',(#1269),#1265,.T.);
#1265=PLANE('',#1266);
#1266=AXIS2_PLACEMENT_3D('',#104,#1267,#1268);
#1267=DIRECTION('',(0,1,-0));
#1268=DIRECTION('',(-0.998840747328026,0,0.048136903485688186));
#1269=FACE_BOUND('',#1270,.T.);
#1270=EDGE_LOOP('',(#1271,#1272,#1273));
#1271=ORIENTED_EDGE('',*,*,#1274,.T.);
#1272=ORIENTED_EDGE('',*,*,#1275,.T.);
#1273=ORIENTED_EDGE('',*,*,#1276,.T.);
#1274=EDGE_CURVE('',#105,#115,#1277,.F.);
#1275=EDGE_CURVE('',#115,#113,#1278,.T.);
#1276=EDGE_CURVE('',#113,#105,#1279,.T.);
#1277=LINE('',#104,#1280);
#1278=LINE('',#114,#1281);
#1279=LINE('',#112,#1282);
#1280=VECTOR('',#1283,1.0);
#1281=VECTOR('',#1284,1.0);
#1282=VECTOR('',#1285,1.0);
#1283=DIRECTION('',(-0.998840747328026,0,0.048136903485688186));
#1284=DIRECTION('',(1,0,0));
#1285=DIRECTION('',(0,0,-1));
#1286=STYLED_ITEM('',(#32),#1287);
#1287=FACE_SURFACE('',(#1292),#1288,.T.);
#1288=PLANE('',#1289);
#1289=AXIS2_PLACEMENT_3D('',#106,#1290,#1291);
#1290=DIRECTION('',(-1,0,0));
#1291=DIRECTION('',(0,-0.9999070799932392,0.01363199836391606));
#1292=FACE_BOUND('',#1293,.T.);
#1293=EDGE_LOOP('',(#1294,#1295,#1296));
#1294=ORIENTED_EDGE('',*,*,#1297,.T.);
#1295=ORIENTED_EDGE('',*,*,#1298,.T.);
#1296=ORIENTED_EDGE('',*,*,#1299,.T.);
#1297=EDGE_CURVE('',#107,#117,#1300,.F.);
#1298=EDGE_CURVE('',#117,#115,#1301,.T.);
#1299=EDGE_CURVE('',#115,#107,#1302,.T.);
#1300=LINE('',#106,#1303);
#1301=LINE('',#116,#1304);
#1302=LINE('',#114,#1305);
#1303=VECTOR('',#1306,1.0);
#1304=VECTOR('',#1307,1.0);
#1305=VECTOR('',#1308,1.0);
#1306=DIRECTION('',(0,-0.9999070799932392,0.01363199836391606));
#1307=DIRECTION('',(0,1,0));
#1308=DIRECTION('',(0,0,-1));
#1309=STYLED_ITEM('',(#32),#1310);
#1310=FACE_SURFACE('',(#1315),#1311,.T.);
#1311=PLANE('',#1312);
#1312=AXIS2_PLACEMENT_3D('',#108,#1313,#1314);
#1313=DIRECTION('',(0,-1,0));
#1314=DIRECTION('',(0.998840747328026,0,0.048136903485688186));
#1315=FACE_BOUND('',#1316,.T.);
#1316=EDGE_LOOP('',(#1317,#1318,#1319));
#1317=ORIENTED_EDGE('',*,*,#1320,.T.);
#1318=ORIENTED_EDGE('',*,*,#1321,.T.);
#1319=ORIENTED_EDGE('',*,*,#1322,.T.);
#1320=EDGE_CURVE('',#109,#111,#1323,.F.);
#1321=EDGE_CURVE('',#111,#117,#1324,.T.);
#1322=EDGE_CURVE('',#117,#109,#1325,.T.);
#1323=LINE('',#108,#1326);
#1324=LINE('',#110,#1327);
#1325=LINE('',#116,#1328);
#1326=VECTOR('',#1329,1.0);
#1327=VECTOR('',#1330,1.0);
#1328=VECTOR('',#1331,1.0);
#1329=DIRECTION('',(0.998840747328026,0,0.048136903485688186));
#1330=DIRECTION('',(-1,0,0));
#1331=DIRECTION('',(0,0,-1));
#1332=STYLED_ITEM('',(#32),#1333);
#1333=FACE_SURFACE('',(#1338),#1334,.T.);
#1334=PLANE('',#1335);
#1335=AXIS2_PLACEMENT_3D('',#112,#1336,#1337);
#1336=DIRECTION('',(0,0,1));
#1337=DIRECTION('',(-0.27220788279309655,-0.9622384676083678,0));
#1338=FACE_BOUND('',#1339,.T.);
#1339=EDGE_LOOP('',(#1340,#1341,#1342));
#1340=ORIENTED_EDGE('',*,*,#1343,.T.);
#1341=ORIENTED_EDGE('',*,*,#1344,.T.);
#1342=ORIENTED_EDGE('',*,*,#1345,.T.);
#1343=EDGE_CURVE('',#113,#117,#1346,.F.);
#1344=EDGE_CURVE('',#117,#111,#1347,.T.);
#1345=EDGE_CURVE('',#111,#113,#1348,.T.);
#1346=LINE('',#112,#1349);
#1347=LINE('',#116,#1350);
#1348=LINE('',#110,#1351);
#1349=VECTOR('',#1352,1.0);
#1350=VECTOR('',#1353,1.0);
#1351=VECTOR('',#1354,1.0);
#1352=DIRECTION('',(-0.27220788279309655,-0.9622384676083678,0));
#1353=DIRECTION('',(1,0,0));
#1354=DIRECTION('',(0,1,0));
#1355=STYLED_ITEM('',(#32),#1356);
#1356=FACE_SURFACE('',(#1361),#1357,.T.);
#1357=PLANE('',#1358);
#1358=AXIS2_PLACEMENT_3D('',#114,#1359,#1360);
#1359=DIRECTION('',(-0,0,1));
#1360=DIRECTION('',(0,-1,0));
#1361=FACE_BOUND('',#1362,.T.);
#1362=EDGE_LOOP('',(#1363,#1364,#1365));
#1363=ORIENTED_EDGE('',*,*,#1366,.T.);
#1364=ORIENTED_EDGE('',*,*,#1367,.T.);
#1365=ORIENTED_EDGE('',*,*,#1368,.T.);
#1366=EDGE_CURVE('',#115,#117,#1369,.F.);
#1367=EDGE_CURVE('',#117,#113,#1370,.T.);
#1368=EDGE_CURVE('',#113,#115,#1371,.T.);
#1369=LINE('',#114,#1372);
#1370=LINE('',#116,#1373);
#1371=LINE('',#112,#1374);
#1372=VECTOR('',#1375,1.0);
#1373=VECTOR('',#1376,1.0);
#1374=VECTOR('',#1377,1.0);
#1375=DIRECTION('',(0,-1,0));
#1376=DIRECTION('',(0.27220788279309655,0.9622384676083678,0));
#1377=DIRECTION('',(-1,0,0));
#1378=STYLED_ITEM('',(#18),#1379);
#1379=FACE_SURFACE('',(#1384),#1380,.T.);
#1380=PLANE('',#1381);
#1381=AXIS2_PLACEMENT_3D('',#120,#1382,#1383);
#1382=DIRECTION('',(0,0,1));
#1383=DIRECTION('',(-0.07248325793852657,0.9973696292341256,0));
#1384=FACE_BOUND('',#1385,.T.);
#1385=EDGE_LOOP('',(#1386,#1387,#1388));
#1386=ORIENTED_EDGE('',*,*,#1389,.T.);
#1387=ORIENTED_EDGE('',*,*,#1390,.T.);
#1388=ORIENTED_EDGE('',*,*,#1391,.T.);
#1389=EDGE_CURVE('',#121,#135,#1392,.F.);
#1390=EDGE_CURVE('',#135,#119,#1393,.T.);
#1391=EDGE_CURVE('',#119,#121,#1394,.T.);
#1392=LINE('',#120,#1395);
#1393=LINE('',#134,#1396);
#1394=LINE('',#118,#1397);
#1395=VECTOR('',#1398,1.0);
#1396=VECTOR('',#1399,1.0);
#1397=VECTOR('',#1400,1.0);
#1398=DIRECTION('',(-0.07248325793852657,0.9973696292341256,0));
#1399=DIRECTION('',(0,-1,0));
#1400=DIRECTION('',(1,0,0));
#1401=STYLED_ITEM('',(#18),#1402);
#1402=FACE_SURFACE('',(#1407),#1403,.T.);
#1403=PLANE('',#1404);
#1404=AXIS2_PLACEMENT_3D('',#122,#1405,#1406);
#1405=DIRECTION('',(1,0,0));
#1406=DIRECTION('',(0,0.8623206091572049,0.5063626832841726));
#1407=FACE_BOUND('',#1408,.T.);
#1408=EDGE_LOOP('',(#1409,#1410,#1411));
#1409=ORIENTED_EDGE('',*,*,#1412,.T.);
#1410=ORIENTED_EDGE('',*,*,#1413,.T.);
#1411=ORIENTED_EDGE('',*,*,#1414,.T.);
#1412=EDGE_CURVE('',#123,#137,#1415,.F.);
#1413=EDGE_CURVE('',#137,#121,#1416,.T.);
#1414=EDGE_CURVE('',#121,#123,#1417,.T.);
#1415=LINE('',#122,#1418);
#1416=LINE('',#136,#1419);
#1417=LINE('',#120,#1420);
#1418=VECTOR('',#1421,1.0);
#1419=VECTOR('',#1422,1.0);
#1420=VECTOR('',#1423,1.0);
#1421=DIRECTION('',(0,0.8623206091572049,0.5063626832841726));
#1422=DIRECTION('',(0,-1,0));
#1423=DIRECTION('',(0,0,-1));
#1424=STYLED_ITEM('',(#18),#1425);
#1425=FACE_SURFACE('',(#1430),#1426,.T.);
#1426=PLANE('',#1427);
#1427=AXIS2_PLACEMENT_3D('',#124,#1428,#1429);
#1428=DIRECTION('',(0,0,-1));
#1429=DIRECTION('',(0.5721815960240813,0.8201269543011832,0));
#1430=FACE_BOUND('',#1431,.T.);
#1431=EDGE_LOOP('',(#1432,#1433,#1434));
#1432=ORIENTED_EDGE('',*,*,#1435,.T.);
#1433=ORIENTED_EDGE('',*,*,#1436,.T.);
#1434=ORIENTED_EDGE('',*,*,#1437,.T.);
#1435=EDGE_CURVE('',#125,#139,#1438,.F.);
#1436=EDGE_CURVE('',#139,#123,#1439,.T.);
#1437=EDGE_CURVE('',#123,#125,#1440,.T.);
#1438=LINE('',#124,#1441);
#1439=LINE('',#138,#1442);
#1440=LINE('',#122,#1443);
#1441=VECTOR('',#1444,1.0);
#1442=VECTOR('',#1445,1.0);
#1443=VECTOR('',#1446,1.0);
#1444=DIRECTION('',(0.5721815960240813,0.8201269543011832,0));
#1445=DIRECTION('',(0,-1,0));
#1446=DIRECTION('',(-1,0,0));
#1447=STYLED_ITEM('',(#18),#1448);
#1448=FACE_SURFACE('',(#1453),#1449,.T.);
#1449=PLANE('',#1450);
#1450=AXIS2_PLACEMENT_3D('',#136,#1451,#1452);
#1451=DIRECTION('',(0,0,1));
#1452=DIRECTION('',(-1,0,0));
#1453=FACE_BOUND('',#1454,.T.);
#1454=EDGE_LOOP('',(#1455,#1456,#1457));
#1455=ORIENTED_EDGE('',*,*,#1458,.T.);
#1456=ORIENTED_EDGE('',*,*,#1459,.T.);
#1457=ORIENTED_EDGE('',*,*,#1460,.T.);
#1458=EDGE_CURVE('',#137,#135,#1461,.F.);
#1459=EDGE_CURVE('',#135,#121,#1462,.T.);
#1460=EDGE_CURVE('',#121,#137,#1463,.T.);
#1461=LINE('',#136,#1464);
#1462=LINE('',#134,#1465);
#1463=LINE('',#120,#1466);
#1464=VECTOR('',#1467,1.0);
#1465=VECTOR('',#1468,1.0);
#1466=VECTOR('',#1469,1.0);
#1467=DIRECTION('',(-1,0,0));
#1468=DIRECTION('',(0.07248325793852657,-0.9973696292341256,0));
#1469=DIRECTION('',(0,1,0));
#1470=STYLED_ITEM('',(#18),#1471);
#1471=FACE_SURFACE('',(#1476),#1472,.T.);
#1472=PLANE('',#1473);
#1473=AXIS2_PLACEMENT_3D('',#138,#1474,#1475);
#1474=DIRECTION('',(1,0,-0));
#1475=DIRECTION('',(0,0,1));
#1476=FACE_BOUND('',#1477,.T.);
#1477=EDGE_LOOP('',(#1478,#1479,#1480));
#1478=ORIENTED_EDGE('',*,*,#1481,.T.);
#1479=ORIENTED_EDGE('',*,*,#1482,.T.);
#1480=ORIENTED_EDGE('',*,*,#1483,.T.);
#1481=EDGE_CURVE('',#139,#137,#1484,.F.);
#1482=EDGE_CURVE('',#137,#123,#1485,.T.);
#1483=EDGE_CURVE('',#123,#139,#1486,.T.);
#1484=LINE('',#138,#1487);
#1485=LINE('',#136,#1488);
#1486=LINE('',#122,#1489);
#1487=VECTOR('',#1490,1.0);
#1488=VECTOR('',#1491,1.0);
#1489=VECTOR('',#1492,1.0);
#1490=DIRECTION('',(0,0,1));
#1491=DIRECTION('',(0,-0.8623206091572049,-0.5063626832841726));
#1492=DIRECTION('',(0,1,0));
#1493=STYLED_ITEM('',(#18),#1494);
#1494=FACE_SURFACE('',(#1499),#1495,.T.);
#1495=PLANE('',#1496);
#1496=AXIS2_PLACEMENT_3D('',#140,#1497,#1498);
#1497=DIRECTION('',(0,0,-1));
#1498=DIRECTION('',(1,0,0));
#1499=FACE_BOUND('',#1500,.T.);
#1500=EDGE_LOOP('',(#1501,#1502,#1503));
#1501=ORIENTED_EDGE('',*,*,#1504,.T.);
#1502=ORIENTED_EDGE('',*,*,#1505,.T.);
#1503=ORIENTED_EDGE('',*,*,#1506,.T.);
#1504=EDGE_CURVE('',#141,#139,#1507,.F.);
#1505=EDGE_CURVE('',#139,#125,#1508,.T.);
#1506=EDGE_CURVE('',#125,#141,#1509,.T.);
#1507=LINE('',#140,#1510);
#1508=LINE('',#138,#1511);
#1509=LINE('',#124,#1512);
#1510=VECTOR('',#1513,1.0);
#1511=VECTOR('',#1514,1.0);
#1512=VECTOR('',#1515,1.0);
#1513=DIRECTION('',(1,0,0));
#1514=DIRECTION('',(-0.5721815960240813,-0.8201269543011832,0));
#1515=DIRECTION('',(0,1,0));
#1516=STYLED_ITEM('',(#18),#1517);
#1517=FACE_SURFACE('',(#1522),#1518,.T.);
#1518=PLANE('',#1519);
#1519=AXIS2_PLACEMENT_3D('',#128,#1520,#1521);
#1520=DIRECTION('',(0,0,-1));
#1521=DIRECTION('',(-1,0,0));
#1522=FACE_BOUND('',#1523,.T.);
#1523=EDGE_LOOP('',(#1524,#1525,#1526));
#1524=ORIENTED_EDGE('',*,*,#1527,.T.);
#1525=ORIENTED_EDGE('',*,*,#1528,.T.);
#1526=ORIENTED_EDGE('',*,*,#1529,.T.);
#1527=EDGE_CURVE('',#129,#127,#1530,.F.);
#1528=EDGE_CURVE('',#127,#143,#1531,.T.);
#1529=EDGE_CURVE('',#143,#129,#1532,.T.);
#1530=LINE('',#128,#1533);
#1531=LINE('',#126,#1534);
#1532=LINE('',#142,#1535);
#1533=VECTOR('',#1536,1.0);
#1534=VECTOR('',#1537,1.0);
#1535=VECTOR('',#1538,1.0);
#1536=DIRECTION('',(-1,0,0));
#1537=DIRECTION('',(0,1,0));
#1538=DIRECTION('',(0.01453334862371598,-0.9998943853116595,0));
#1539=STYLED_ITEM('',(#18),#1540);
#1540=FACE_SURFACE('',(#1545),#1541,.T.);
#1541=PLANE('',#1542);
#1542=AXIS2_PLACEMENT_3D('',#130,#1543,#1544);
#1543=DIRECTION('',(-1,0,0));
#1544=DIRECTION('',(0,0,1));
#1545=FACE_BOUND('',#1546,.T.);
#1546=EDGE_LOOP('',(#1547,#1548,#1549));
#1547=ORIENTED_EDGE('',*,*,#1550,.T.);
#1548=ORIENTED_EDGE('',*,*,#1551,.T.);
#1549=ORIENTED_EDGE('',*,*,#1552,.T.);
#1550=EDGE_CURVE('',#131,#129,#1553,.F.);
#1551=EDGE_CURVE('',#129,#145,#1554,.T.);
#1552=EDGE_CURVE('',#145,#131,#1555,.T.);
#1553=LINE('',#130,#1556);
#1554=LINE('',#128,#1557);
#1555=LINE('',#144,#1558);
#1556=VECTOR('',#1559,1.0);
#1557=VECTOR('',#1560,1.0);
#1558=VECTOR('',#1561,1.0);
#1559=DIRECTION('',(0,0,1));
#1560=DIRECTION('',(0,1,0));
#1561=DIRECTION('',(0,-0.904699462650605,-0.42605032834127327));
#1562=STYLED_ITEM('',(#18),#1563);
#1563=FACE_SURFACE('',(#1568),#1564,.T.);
#1564=PLANE('',#1565);
#1565=AXIS2_PLACEMENT_3D('',#132,#1566,#1567);
#1566=DIRECTION('',(0,0,1));
#1567=DIRECTION('',(1,0,0));
#1568=FACE_BOUND('',#1569,.T.);
#1569=EDGE_LOOP('',(#1570,#1571,#1572));
#1570=ORIENTED_EDGE('',*,*,#1573,.T.);
#1571=ORIENTED_EDGE('',*,*,#1574,.T.);
#1572=ORIENTED_EDGE('',*,*,#1575,.T.);
#1573=EDGE_CURVE('',#133,#131,#1576,.F.);
#1574=EDGE_CURVE('',#131,#147,#1577,.T.);
#1575=EDGE_CURVE('',#147,#133,#1578,.T.);
#1576=LINE('',#132,#1579);
#1577=LINE('',#130,#1580);
#1578=LINE('',#146,#1581);
#1579=VECTOR('',#1582,1.0);
#1580=VECTOR('',#1583,1.0);
#1581=VECTOR('',#1584,1.0);
#1582=DIRECTION('',(1,0,0));
#1583=DIRECTION('',(0,1,0));
#1584=DIRECTION('',(-0.5387756897212093,-0.8424492602913455,0));
#1585=STYLED_ITEM('',(#18),#1586);
#1586=FACE_SURFACE('',(#1591),#1587,.T.);
#1587=PLANE('',#1588);
#1588=AXIS2_PLACEMENT_3D('',#142,#1589,#1590);
#1589=DIRECTION('',(0,0,-1));
#1590=DIRECTION('',(1,0,0));
#1591=FACE_BOUND('',#1592,.T.);
#1592=EDGE_LOOP('',(#1593,#1594,#1595));
#1593=ORIENTED_EDGE('',*,*,#1596,.T.);
#1594=ORIENTED_EDGE('',*,*,#1597,.T.);
#1595=ORIENTED_EDGE('',*,*,#1598,.T.);
#1596=EDGE_CURVE('',#143,#145,#1599,.F.);
#1597=EDGE_CURVE('',#145,#129,#1600,.T.);
#1598=EDGE_CURVE('',#129,#143,#1601,.T.);
#1599=LINE('',#142,#1602);
#1600=LINE('',#144,#1603);
#1601=LINE('',#128,#1604);
#1602=VECTOR('',#1605,1.0);
#1603=VECTOR('',#1606,1.0);
#1604=VECTOR('',#1607,1.0);
#1605=DIRECTION('',(1,0,0));
#1606=DIRECTION('',(0,-1,0));
#1607=DIRECTION('',(-0.01453334862371598,0.9998943853116595,0));
#1608=STYLED_ITEM('',(#18),#1609);
#1609=FACE_SURFACE('',(#1614),#1610,.T.);
#1610=PLANE('',#1611);
#1611=AXIS2_PLACEMENT_3D('',#144,#1612,#1613);
#1612=DIRECTION('',(-1,0,-0));
#1613=DIRECTION('',(0,0,-1));
#1614=FACE_BOUND('',#1615,.T.);
#1615=EDGE_LOOP('',(#1616,#1617,#1618));
#1616=ORIENTED_EDGE('',*,*,#1619,.T.);
#1617=ORIENTED_EDGE('',*,*,#1620,.T.);
#1618=ORIENTED_EDGE('',*,*,#1621,.T.);
#1619=EDGE_CURVE('',#145,#147,#1622,.F.);
#1620=EDGE_CURVE('',#147,#131,#1623,.T.);
#1621=EDGE_CURVE('',#131,#145,#1624,.T.);
#1622=LINE('',#144,#1625);
#1623=LINE('',#146,#1626);
#1624=LINE('',#130,#1627);
#1625=VECTOR('',#1628,1.0);
#1626=VECTOR('',#1629,1.0);
#1627=VECTOR('',#1630,1.0);
#1628=DIRECTION('',(0,0,-1));
#1629=DIRECTION('',(0,-1,0));
#1630=DIRECTION('',(0,0.904699462650605,0.42605032834127327));
#1631=STYLED_ITEM('',(#18),#1632);
#1632=FACE_SURFACE('',(#1637),#1633,.T.);
#1633=PLANE('',#1634);
#1634=AXIS2_PLACEMENT_3D('',#146,#1635,#1636);
#1635=DIRECTION('',(0,0,1));
#1636=DIRECTION('',(-1,0,0));
#1637=FACE_BOUND('',#1638,.T.);
#1638=EDGE_LOOP('',(#1639,#1640,#1641));
#1639=ORIENTED_EDGE('',*,*,#1642,.T.);
#1640=ORIENTED_EDGE('',*,*,#1643,.T.);
#1641=ORIENTED_EDGE('',*,*,#1644,.T.);
#1642=EDGE_CURVE('',#147,#149,#1645,.F.);
#1643=EDGE_CURVE('',#149,#133,#1646,.T.);
#1644=EDGE_CURVE('',#133,#147,#1647,.T.);
#1645=LINE('',#146,#1648);
#1646=LINE('',#148,#1649);
#1647=LINE('',#132,#1650);
#1648=VECTOR('',#1651,1.0);
#1649=VECTOR('',#1652,1.0);
#1650=VECTOR('',#1653,1.0);
#1651=DIRECTION('',(-1,0,0));
#1652=DIRECTION('',(0,-1,0));
#1653=DIRECTION('',(0.5387756897212093,0.8424492602913455,0));
#1654=STYLED_ITEM('',(#18),#1655);
#1655=FACE_SURFACE('',(#1660),#1656,.T.);
#1656=PLANE('',#1657);
#1657=AXIS2_PLACEMENT_3D('',#126,#1658,#1659);
#1658=DIRECTION('',(0,-1,0));
#1659=DIRECTION('',(0.7808688094430309,0,0.6246950475544236));
#1660=FACE_BOUND('',#1661,.T.);
#1661=EDGE_LOOP('',(#1662,#1663,#1664));
#1662=ORIENTED_EDGE('',*,*,#1665,.T.);
#1663=ORIENTED_EDGE('',*,*,#1666,.T.);
#1664=ORIENTED_EDGE('',*,*,#1667,.T.);
#1665=EDGE_CURVE('',#127,#121,#1668,.F.);
#1666=EDGE_CURVE('',#121,#119,#1669,.T.);
#1667=EDGE_CURVE('',#119,#127,#1670,.T.);
#1668=LINE('',#126,#1671);
#1669=LINE('',#120,#1672);
#1670=LINE('',#118,#1673);
#1671=VECTOR('',#1674,1.0);
#1672=VECTOR('',#1675,1.0);
#1673=VECTOR('',#1676,1.0);
#1674=DIRECTION('',(0.7808688094430309,0,0.6246950475544236));
#1675=DIRECTION('',(-1,0,0));
#1676=DIRECTION('',(0,0,-1));
#1677=STYLED_ITEM('',(#18),#1678);
#1678=FACE_SURFACE('',(#1683),#1679,.T.);
#1679=PLANE('',#1680);
#1680=AXIS2_PLACEMENT_3D('',#128,#1681,#1682);
#1681=DIRECTION('',(0,-1,0));
#1682=DIRECTION('',(0.7071067811865482,0,0.7071067811865469));
#1683=FACE_BOUND('',#1684,.T.);
#1684=EDGE_LOOP('',(#1685,#1686,#1687));
#1685=ORIENTED_EDGE('',*,*,#1688,.T.);
#1686=ORIENTED_EDGE('',*,*,#1689,.T.);
#1687=ORIENTED_EDGE('',*,*,#1690,.T.);
#1688=EDGE_CURVE('',#129,#121,#1691,.F.);
#1689=EDGE_CURVE('',#121,#127,#1692,.T.);
#1690=EDGE_CURVE('',#127,#129,#1693,.T.);
#1691=LINE('',#128,#1694);
#1692=LINE('',#120,#1695);
#1693=LINE('',#126,#1696);
#1694=VECTOR('',#1697,1.0);
#1695=VECTOR('',#1698,1.0);
#1696=VECTOR('',#1699,1.0);
#1697=DIRECTION('',(0.7071067811865482,0,0.7071067811865469));
#1698=DIRECTION('',(-0.7808688094430309,0,-0.6246950475544236));
#1699=DIRECTION('',(1,0,0));
#1700=STYLED_ITEM('',(#18),#1701);
#1701=FACE_SURFACE('',(#1706),#1702,.T.);
#1702=PLANE('',#1703);
#1703=AXIS2_PLACEMENT_3D('',#122,#1704,#1705);
#1704=DIRECTION('',(0,-1,0));
#1705=DIRECTION('',(0,0,1));
#1706=FACE_BOUND('',#1707,.T.);
#1707=EDGE_LOOP('',(#1708,#1709,#1710));
#1708=ORIENTED_EDGE('',*,*,#1711,.T.);
#1709=ORIENTED_EDGE('',*,*,#1712,.T.);
#1710=ORIENTED_EDGE('',*,*,#1713,.T.);
#1711=EDGE_CURVE('',#123,#121,#1714,.F.);
#1712=EDGE_CURVE('',#121,#129,#1715,.T.);
#1713=EDGE_CURVE('',#129,#123,#1716,.T.);
#1714=LINE('',#122,#1717);
#1715=LINE('',#120,#1718);
#1716=LINE('',#128,#1719);
#1717=VECTOR('',#1720,1.0);
#1718=VECTOR('',#1721,1.0);
#1719=VECTOR('',#1722,1.0);
#1720=DIRECTION('',(0,0,1));
#1721=DIRECTION('',(-0.7071067811865482,0,-0.7071067811865469));
#1722=DIRECTION('',(0.10923255186885404,0,-0.9940162220065719));
#1723=STYLED_ITEM('',(#18),#1724);
#1724=FACE_SURFACE('',(#1729),#1725,.T.);
#1725=PLANE('',#1726);
#1726=AXIS2_PLACEMENT_3D('',#130,#1727,#1728);
#1727=DIRECTION('',(0,-1,0));
#1728=DIRECTION('',(0.7071067811865476,0,-0.7071067811865476));
#1729=FACE_BOUND('',#1730,.T.);
#1730=EDGE_LOOP('',(#1731,#1732,#1733));
#1731=ORIENTED_EDGE('',*,*,#1734,.T.);
#1732=ORIENTED_EDGE('',*,*,#1735,.T.);
#1733=ORIENTED_EDGE('',*,*,#1736,.T.);
#1734=EDGE_CURVE('',#131,#123,#1737,.F.);
#1735=EDGE_CURVE('',#123,#129,#1738,.T.);
#1736=EDGE_CURVE('',#129,#131,#1739,.T.);
#1737=LINE('',#130,#1740);
#1738=LINE('',#122,#1741);
#1739=LINE('',#128,#1742);
#1740=VECTOR('',#1743,1.0);
#1741=VECTOR('',#1744,1.0);
#1742=VECTOR('',#1745,1.0);
#1743=DIRECTION('',(0.7071067811865476,0,-0.7071067811865476));
#1744=DIRECTION('',(-0.10923255186885404,0,0.9940162220065719));
#1745=DIRECTION('',(0,0,-1));
#1746=STYLED_ITEM('',(#18),#1747);
#1747=FACE_SURFACE('',(#1752),#1748,.T.);
#1748=PLANE('',#1749);
#1749=AXIS2_PLACEMENT_3D('',#130,#1750,#1751);
#1750=DIRECTION('',(0,-1,-0));
#1751=DIRECTION('',(-0.9958932064677039,0,-0.09053574604251853));
#1752=FACE_BOUND('',#1753,.T.);
#1753=EDGE_LOOP('',(#1754,#1755,#1756));
#1754=ORIENTED_EDGE('',*,*,#1757,.T.);
#1755=ORIENTED_EDGE('',*,*,#1758,.T.);
#1756=ORIENTED_EDGE('',*,*,#1759,.T.);
#1757=EDGE_CURVE('',#131,#125,#1760,.F.);
#1758=EDGE_CURVE('',#125,#123,#1761,.T.);
#1759=EDGE_CURVE('',#123,#131,#1762,.T.);
#1760=LINE('',#130,#1763);
#1761=LINE('',#124,#1764);
#1762=LINE('',#122,#1765);
#1763=VECTOR('',#1766,1.0);
#1764=VECTOR('',#1767,1.0);
#1765=VECTOR('',#1768,1.0);
#1766=DIRECTION('',(-0.9958932064677039,0,-0.09053574604251853));
#1767=DIRECTION('',(1,0,0));
#1768=DIRECTION('',(-0.7071067811865476,0,0.7071067811865476));
#1769=STYLED_ITEM('',(#18),#1770);
#1770=FACE_SURFACE('',(#1775),#1771,.T.);
#1771=PLANE('',#1772);
#1772=AXIS2_PLACEMENT_3D('',#130,#1773,#1774);
#1773=DIRECTION('',(-0,-1,0));
#1774=DIRECTION('',(-1,0,0));
#1775=FACE_BOUND('',#1776,.T.);
#1776=EDGE_LOOP('',(#1777,#1778,#1779));
#1777=ORIENTED_EDGE('',*,*,#1780,.T.);
#1778=ORIENTED_EDGE('',*,*,#1781,.T.);
#1779=ORIENTED_EDGE('',*,*,#1782,.T.);
#1780=EDGE_CURVE('',#131,#133,#1783,.F.);
#1781=EDGE_CURVE('',#133,#125,#1784,.T.);
#1782=EDGE_CURVE('',#125,#131,#1785,.T.);
#1783=LINE('',#130,#1786);
#1784=LINE('',#132,#1787);
#1785=LINE('',#124,#1788);
#1786=VECTOR('',#1789,1.0);
#1787=VECTOR('',#1790,1.0);
#1788=VECTOR('',#1791,1.0);
#1789=DIRECTION('',(-1,0,0));
#1790=DIRECTION('',(0,0,-1));
#1791=DIRECTION('',(0.9958932064677039,0,0.09053574604251853));
#1792=STYLED_ITEM('',(#18),#1793);
#1793=FACE_SURFACE('',(#1798),#1794,.T.);
#1794=PLANE('',#1795);
#1795=AXIS2_PLACEMENT_3D('',#136,#1796,#1797);
#1796=DIRECTION('',(0,1,0));
#1797=DIRECTION('',(-0.7808688094430309,0,-0.6246950475544236));
#1798=FACE_BOUND('',#1799,.T.);
#1799=EDGE_LOOP('',(#1800,#1801,#1802));
#1800=ORIENTED_EDGE('',*,*,#1803,.T.);
#1801=ORIENTED_EDGE('',*,*,#1804,.T.);
#1802=ORIENTED_EDGE('',*,*,#1805,.T.);
#1803=EDGE_CURVE('',#137,#143,#1806,.F.);
#1804=EDGE_CURVE('',#143,#135,#1807,.T.);
#1805=EDGE_CURVE('',#135,#137,#1808,.T.);
#1806=LINE('',#136,#1809);
#1807=LINE('',#142,#1810);
#1808=LINE('',#134,#1811);
#1809=VECTOR('',#1812,1.0);
#1810=VECTOR('',#1813,1.0);
#1811=VECTOR('',#1814,1.0);
#1812=DIRECTION('',(-0.7808688094430309,0,-0.6246950475544236));
#1813=DIRECTION('',(0,0,1));
#1814=DIRECTION('',(1,0,0));
#1815=STYLED_ITEM('',(#18),#1816);
#1816=FACE_SURFACE('',(#1821),#1817,.T.);
#1817=PLANE('',#1818);
#1818=AXIS2_PLACEMENT_3D('',#136,#1819,#1820);
#1819=DIRECTION('',(0,1,0));
#1820=DIRECTION('',(-0.7071067811865482,0,-0.7071067811865469));
#1821=FACE_BOUND('',#1822,.T.);
#1822=EDGE_LOOP('',(#1823,#1824,#1825));
#1823=ORIENTED_EDGE('',*,*,#1826,.T.);
#1824=ORIENTED_EDGE('',*,*,#1827,.T.);
#1825=ORIENTED_EDGE('',*,*,#1828,.T.);
#1826=EDGE_CURVE('',#137,#145,#1829,.F.);
#1827=EDGE_CURVE('',#145,#143,#1830,.T.);
#1828=EDGE_CURVE('',#143,#137,#1831,.T.);
#1829=LINE('',#136,#1832);
#1830=LINE('',#144,#1833);
#1831=LINE('',#142,#1834);
#1832=VECTOR('',#1835,1.0);
#1833=VECTOR('',#1836,1.0);
#1834=VECTOR('',#1837,1.0);
#1835=DIRECTION('',(-0.7071067811865482,0,-0.7071067811865469));
#1836=DIRECTION('',(-1,0,0));
#1837=DIRECTION('',(0.7808688094430309,0,0.6246950475544236));
#1838=STYLED_ITEM('',(#18),#1839);
#1839=FACE_SURFACE('',(#1844),#1840,.T.);
#1840=PLANE('',#1841);
#1841=AXIS2_PLACEMENT_3D('',#136,#1842,#1843);
#1842=DIRECTION('',(0,1,0));
#1843=DIRECTION('',(0,0,-1));
#1844=FACE_BOUND('',#1845,.T.);
#1845=EDGE_LOOP('',(#1846,#1847,#1848));
#1846=ORIENTED_EDGE('',*,*,#1849,.T.);
#1847=ORIENTED_EDGE('',*,*,#1850,.T.);
#1848=ORIENTED_EDGE('',*,*,#1851,.T.);
#1849=EDGE_CURVE('',#137,#139,#1852,.F.);
#1850=EDGE_CURVE('',#139,#145,#1853,.T.);
#1851=EDGE_CURVE('',#145,#137,#1854,.T.);
#1852=LINE('',#136,#1855);
#1853=LINE('',#138,#1856);
#1854=LINE('',#144,#1857);
#1855=VECTOR('',#1858,1.0);
#1856=VECTOR('',#1859,1.0);
#1857=VECTOR('',#1860,1.0);
#1858=DIRECTION('',(0,0,-1));
#1859=DIRECTION('',(-0.10923255186885404,0,0.9940162220065719));
#1860=DIRECTION('',(0.7071067811865482,0,0.7071067811865469));
#1861=STYLED_ITEM('',(#18),#1862);
#1862=FACE_SURFACE('',(#1867),#1863,.T.);
#1863=PLANE('',#1864);
#1864=AXIS2_PLACEMENT_3D('',#138,#1865,#1866);
#1865=DIRECTION('',(0,1,0));
#1866=DIRECTION('',(-0.7071067811865476,0,0.7071067811865476));
#1867=FACE_BOUND('',#1868,.T.);
#1868=EDGE_LOOP('',(#1869,#1870,#1871));
#1869=ORIENTED_EDGE('',*,*,#1872,.T.);
#1870=ORIENTED_EDGE('',*,*,#1873,.T.);
#1871=ORIENTED_EDGE('',*,*,#1874,.T.);
#1872=EDGE_CURVE('',#139,#147,#1875,.F.);
#1873=EDGE_CURVE('',#147,#145,#1876,.T.);
#1874=EDGE_CURVE('',#145,#139,#1877,.T.);
#1875=LINE('',#138,#1878);
#1876=LINE('',#146,#1879);
#1877=LINE('',#144,#1880);
#1878=VECTOR('',#1881,1.0);
#1879=VECTOR('',#1882,1.0);
#1880=VECTOR('',#1883,1.0);
#1881=DIRECTION('',(-0.7071067811865476,0,0.7071067811865476));
#1882=DIRECTION('',(0,0,1));
#1883=DIRECTION('',(0.10923255186885404,0,-0.9940162220065719));
#1884=STYLED_ITEM('',(#18),#1885);
#1885=FACE_SURFACE('',(#1890),#1886,.T.);
#1886=PLANE('',#1887);
#1887=AXIS2_PLACEMENT_3D('',#138,#1888,#1889);
#1888=DIRECTION('',(0,1,0));
#1889=DIRECTION('',(-1,0,0));
#1890=FACE_BOUND('',#1891,.T.);
#1891=EDGE_LOOP('',(#1892,#1893,#1894));
#1892=ORIENTED_EDGE('',*,*,#1895,.T.);
#1893=ORIENTED_EDGE('',*,*,#1896,.T.);
#1894=ORIENTED_EDGE('',*,*,#1897,.T.);
#1895=EDGE_CURVE('',#139,#141,#1898,.F.);
#1896=EDGE_CURVE('',#141,#147,#1899,.T.);
#1897=EDGE_CURVE('',#147,#139,#1900,.T.);
#1898=LINE('',#138,#1901);
#1899=LINE('',#140,#1902);
#1900=LINE('',#146,#1903);
#1901=VECTOR('',#1904,1.0);
#1902=VECTOR('',#1905,1.0);
#1903=VECTOR('',#1906,1.0);
#1904=DIRECTION('',(-1,0,0));
#1905=DIRECTION('',(0.9958932064677039,0,0.09053574604251853));
#1906=DIRECTION('',(0.7071067811865476,0,-0.7071067811865476));
#1907=STYLED_ITEM('',(#18),#1908);
#1908=FACE_SURFACE('',(#1913),#1909,.T.);
#1909=PLANE('',#1910);
#1910=AXIS2_PLACEMENT_3D('',#146,#1911,#1912);
#1911=DIRECTION('',(0,1,0));
#1912=DIRECTION('',(-0.9958932064677039,0,-0.09053574604251853));
#1913=FACE_BOUND('',#1914,.T.);
#1914=EDGE_LOOP('',(#1915,#1916,#1917));
#1915=ORIENTED_EDGE('',*,*,#1918,.T.);
#1916=ORIENTED_EDGE('',*,*,#1919,.T.);
#1917=ORIENTED_EDGE('',*,*,#1920,.T.);
#1918=EDGE_CURVE('',#147,#141,#1921,.F.);
#1919=EDGE_CURVE('',#141,#149,#1922,.T.);
#1920=EDGE_CURVE('',#149,#147,#1923,.T.);
#1921=LINE('',#146,#1924);
#1922=LINE('',#140,#1925);
#1923=LINE('',#148,#1926);
#1924=VECTOR('',#1927,1.0);
#1925=VECTOR('',#1928,1.0);
#1926=VECTOR('',#1929,1.0);
#1927=DIRECTION('',(-0.9958932064677039,0,-0.09053574604251853));
#1928=DIRECTION('',(0,0,1));
#1929=DIRECTION('',(1,0,0));
#1930=STYLED_ITEM('',(#18),#1931);
#1931=FACE_SURFACE('',(#1936),#1932,.T.);
#1932=PLANE('',#1933);
#1933=AXIS2_PLACEMENT_3D('',#142,#1934,#1935);
#1934=DIRECTION('',(-1,0,0));
#1935=DIRECTION('',(0,-1,0));
#1936=FACE_BOUND('',#1937,.T.);
#1937=EDGE_LOOP('',(#1938,#1939,#1940));
#1938=ORIENTED_EDGE('',*,*,#1941,.T.);
#1939=ORIENTED_EDGE('',*,*,#1942,.T.);
#1940=ORIENTED_EDGE('',*,*,#1943,.T.);
#1941=EDGE_CURVE('',#143,#127,#1944,.F.);
#1942=EDGE_CURVE('',#127,#119,#1945,.T.);
#1943=EDGE_CURVE('',#119,#143,#1946,.T.);
#1944=LINE('',#142,#1947);
#1945=LINE('',#126,#1948);
#1946=LINE('',#118,#1949);
#1947=VECTOR('',#1950,1.0);
#1948=VECTOR('',#1951,1.0);
#1949=VECTOR('',#1952,1.0);
#1950=DIRECTION('',(0,-1,0));
#1951=DIRECTION('',(0,0,1));
#1952=DIRECTION('',(0,0.9983141698791173,-0.058041521504599736));
#1953=STYLED_ITEM('',(#18),#1954);
#1954=FACE_SURFACE('',(#1959),#1955,.T.);
#1955=PLANE('',#1956);
#1956=AXIS2_PLACEMENT_3D('',#142,#1957,#1958);
#1957=DIRECTION('',(-1,0,0));
#1958=DIRECTION('',(0,-0.9983141698791173,0.058041521504599736));
#1959=FACE_BOUND('',#1960,.T.);
#1960=EDGE_LOOP('',(#1961,#1962,#1963));
#1961=ORIENTED_EDGE('',*,*,#1964,.T.);
#1962=ORIENTED_EDGE('',*,*,#1965,.T.);
#1963=ORIENTED_EDGE('',*,*,#1966,.T.);
#1964=EDGE_CURVE('',#143,#119,#1967,.F.);
#1965=EDGE_CURVE('',#119,#135,#1968,.T.);
#1966=EDGE_CURVE('',#135,#143,#1969,.T.);
#1967=LINE('',#142,#1970);
#1968=LINE('',#118,#1971);
#1969=LINE('',#134,#1972);
#1970=VECTOR('',#1973,1.0);
#1971=VECTOR('',#1974,1.0);
#1972=VECTOR('',#1975,1.0);
#1973=DIRECTION('',(0,-0.9983141698791173,0.058041521504599736));
#1974=DIRECTION('',(0,1,0));
#1975=DIRECTION('',(0,0,-1));
#1976=STYLED_ITEM('',(#18),#1977);
#1977=FACE_SURFACE('',(#1982),#1978,.T.);
#1978=PLANE('',#1979);
#1979=AXIS2_PLACEMENT_3D('',#140,#1980,#1981);
#1980=DIRECTION('',(-1,0,0));
#1981=DIRECTION('',(0,-1,0));
#1982=FACE_BOUND('',#1983,.T.);
#1983=EDGE_LOOP('',(#1984,#1985,#1986));
#1984=ORIENTED_EDGE('',*,*,#1987,.T.);
#1985=ORIENTED_EDGE('',*,*,#1988,.T.);
#1986=ORIENTED_EDGE('',*,*,#1989,.T.);
#1987=EDGE_CURVE('',#141,#125,#1990,.F.);
#1988=EDGE_CURVE('',#125,#133,#1991,.T.);
#1989=EDGE_CURVE('',#133,#141,#1992,.T.);
#1990=LINE('',#140,#1993);
#1991=LINE('',#124,#1994);
#1992=LINE('',#132,#1995);
#1993=VECTOR('',#1996,1.0);
#1994=VECTOR('',#1997,1.0);
#1995=VECTOR('',#1998,1.0);
#1996=DIRECTION('',(0,-1,0));
#1997=DIRECTION('',(0,0,1));
#1998=DIRECTION('',(0,0.9983141698791173,-0.05804152150459984));
#1999=STYLED_ITEM('',(#18),#2000);
#2000=FACE_SURFACE('',(#2005),#2001,.T.);
#2001=PLANE('',#2002);
#2002=AXIS2_PLACEMENT_3D('',#148,#2003,#2004);
#2003=DIRECTION('',(-1,-0,-0));
#2004=DIRECTION('',(0,0,-1));
#2005=FACE_BOUND('',#2006,.T.);
#2006=EDGE_LOOP('',(#2007,#2008,#2009));
#2007=ORIENTED_EDGE('',*,*,#2010,.T.);
#2008=ORIENTED_EDGE('',*,*,#2011,.T.);
#2009=ORIENTED_EDGE('',*,*,#2012,.T.);
#2010=EDGE_CURVE('',#149,#141,#2013,.F.);
#2011=EDGE_CURVE('',#141,#133,#2014,.T.);
#2012=EDGE_CURVE('',#133,#149,#2015,.T.);
#2013=LINE('',#148,#2016);
#2014=LINE('',#140,#2017);
#2015=LINE('',#132,#2018);
#2016=VECTOR('',#2019,1.0);
#2017=VECTOR('',#2020,1.0);
#2018=VECTOR('',#2021,1.0);
#2019=DIRECTION('',(0,0,-1));
#2020=DIRECTION('',(0,-0.9983141698791173,0.05804152150459984));
#2021=DIRECTION('',(0,1,0));
#2022=STYLED_ITEM('',(#18),#2023);
#2023=FACE_SURFACE('',(#2028),#2024,.T.);
#2024=PLANE('',#2025);
#2025=AXIS2_PLACEMENT_3D('',#152,#2026,#2027);
#2026=DIRECTION('',(-0,0,1));
#2027=DIRECTION('',(0.07248325793852657,-0.9973696292341256,0));
#2028=FACE_BOUND('',#2029,.T.);
#2029=EDGE_LOOP('',(#2030,#2031,#2032));
#2030=ORIENTED_EDGE('',*,*,#2033,.T.);
#2031=ORIENTED_EDGE('',*,*,#2034,.T.);
#2032=ORIENTED_EDGE('',*,*,#2035,.T.);
#2033=EDGE_CURVE('',#153,#167,#2036,.F.);
#2034=EDGE_CURVE('',#167,#151,#2037,.T.);
#2035=EDGE_CURVE('',#151,#153,#2038,.T.);
#2036=LINE('',#152,#2039);
#2037=LINE('',#166,#2040);
#2038=LINE('',#150,#2041);
#2039=VECTOR('',#2042,1.0);
#2040=VECTOR('',#2043,1.0);
#2041=VECTOR('',#2044,1.0);
#2042=DIRECTION('',(0.07248325793852657,-0.9973696292341256,0));
#2043=DIRECTION('',(0,1,0));
#2044=DIRECTION('',(-1,0,0));
#2045=STYLED_ITEM('',(#18),#2046);
#2046=FACE_SURFACE('',(#2051),#2047,.T.);
#2047=PLANE('',#2048);
#2048=AXIS2_PLACEMENT_3D('',#154,#2049,#2050);
#2049=DIRECTION('',(-1,0,0));
#2050=DIRECTION('',(0,-0.8623206091572049,0.5063626832841726));
#2051=FACE_BOUND('',#2052,.T.);
#2052=EDGE_LOOP('',(#2053,#2054,#2055));
#2053=ORIENTED_EDGE('',*,*,#2056,.T.);
#2054=ORIENTED_EDGE('',*,*,#2057,.T.);
#2055=ORIENTED_EDGE('',*,*,#2058,.T.);
#2056=EDGE_CURVE('',#155,#169,#2059,.F.);
#2057=EDGE_CURVE('',#169,#153,#2060,.T.);
#2058=EDGE_CURVE('',#153,#155,#2061,.T.);
#2059=LINE('',#154,#2062);
#2060=LINE('',#168,#2063);
#2061=LINE('',#152,#2064);
#2062=VECTOR('',#2065,1.0);
#2063=VECTOR('',#2066,1.0);
#2064=VECTOR('',#2067,1.0);
#2065=DIRECTION('',(0,-0.8623206091572049,0.5063626832841726));
#2066=DIRECTION('',(0,1,0));
#2067=DIRECTION('',(0,0,-1));
#2068=STYLED_ITEM('',(#18),#2069);
#2069=FACE_SURFACE('',(#2074),#2070,.T.);
#2070=PLANE('',#2071);
#2071=AXIS2_PLACEMENT_3D('',#156,#2072,#2073);
#2072=DIRECTION('',(-0,0,-1));
#2073=DIRECTION('',(-0.5721815960240813,-0.8201269543011832,0));
#2074=FACE_BOUND('',#2075,.T.);
#2075=EDGE_LOOP('',(#2076,#2077,#2078));
#2076=ORIENTED_EDGE('',*,*,#2079,.T.);
#2077=ORIENTED_EDGE('',*,*,#2080,.T.);
#2078=ORIENTED_EDGE('',*,*,#2081,.T.);
#2079=EDGE_CURVE('',#157,#171,#2082,.F.);
#2080=EDGE_CURVE('',#171,#155,#2083,.T.);
#2081=EDGE_CURVE('',#155,#157,#2084,.T.);
#2082=LINE('',#156,#2085);
#2083=LINE('',#170,#2086);
#2084=LINE('',#154,#2087);
#2085=VECTOR('',#2088,1.0);
#2086=VECTOR('',#2089,1.0);
#2087=VECTOR('',#2090,1.0);
#2088=DIRECTION('',(-0.5721815960240813,-0.8201269543011832,0));
#2089=DIRECTION('',(0,1,0));
#2090=DIRECTION('',(1,0,0));
#2091=STYLED_ITEM('',(#18),#2092);
#2092=FACE_SURFACE('',(#2097),#2093,.T.);
#2093=PLANE('',#2094);
#2094=AXIS2_PLACEMENT_3D('',#168,#2095,#2096);
#2095=DIRECTION('',(0,0,1));
#2096=DIRECTION('',(1,0,0));
#2097=FACE_BOUND('',#2098,.T.);
#2098=EDGE_LOOP('',(#2099,#2100,#2101));
#2099=ORIENTED_EDGE('',*,*,#2102,.T.);
#2100=ORIENTED_EDGE('',*,*,#2103,.T.);
#2101=ORIENTED_EDGE('',*,*,#2104,.T.);
#2102=EDGE_CURVE('',#169,#167,#2105,.F.);
#2103=EDGE_CURVE('',#167,#153,#2106,.T.);
#2104=EDGE_CURVE('',#153,#169,#2107,.T.);
#2105=LINE('',#168,#2108);
#2106=LINE('',#166,#2109);
#2107=LINE('',#152,#2110);
#2108=VECTOR('',#2111,1.0);
#2109=VECTOR('',#2112,1.0);
#2110=VECTOR('',#2113,1.0);
#2111=DIRECTION('',(1,0,0));
#2112=DIRECTION('',(-0.07248325793852657,0.9973696292341256,0));
#2113=DIRECTION('',(0,-1,0));
#2114=STYLED_ITEM('',(#18),#2115);
#2115=FACE_SURFACE('',(#2120),#2116,.T.);
#2116=PLANE('',#2117);
#2117=AXIS2_PLACEMENT_3D('',#170,#2118,#2119);
#2118=DIRECTION('',(-1,0,0));
#2119=DIRECTION('',(0,0,1));
#2120=FACE_BOUND('',#2121,.T.);
#2121=EDGE_LOOP('',(#2122,#2123,#2124));
#2122=ORIENTED_EDGE('',*,*,#2125,.T.);
#2123=ORIENTED_EDGE('',*,*,#2126,.T.);
#2124=ORIENTED_EDGE('',*,*,#2127,.T.);
#2125=EDGE_CURVE('',#171,#169,#2128,.F.);
#2126=EDGE_CURVE('',#169,#155,#2129,.T.);
#2127=EDGE_CURVE('',#155,#171,#2130,.T.);
#2128=LINE('',#170,#2131);
#2129=LINE('',#168,#2132);
#2130=LINE('',#154,#2133);
#2131=VECTOR('',#2134,1.0);
#2132=VECTOR('',#2135,1.0);
#2133=VECTOR('',#2136,1.0);
#2134=DIRECTION('',(0,0,1));
#2135=DIRECTION('',(0,0.8623206091572049,-0.5063626832841726));
#2136=DIRECTION('',(0,-1,0));
#2137=STYLED_ITEM('',(#18),#2138);
#2138=FACE_SURFACE('',(#2143),#2139,.T.);
#2139=PLANE('',#2140);
#2140=AXIS2_PLACEMENT_3D('',#172,#2141,#2142);
#2141=DIRECTION('',(0,0,-1));
#2142=DIRECTION('',(-1,0,0));
#2143=FACE_BOUND('',#2144,.T.);
#2144=EDGE_LOOP('',(#2145,#2146,#2147));
#2145=ORIENTED_EDGE('',*,*,#2148,.T.);
#2146=ORIENTED_EDGE('',*,*,#2149,.T.);
#2147=ORIENTED_EDGE('',*,*,#2150,.T.);
#2148=EDGE_CURVE('',#173,#171,#2151,.F.);
#2149=EDGE_CURVE('',#171,#157,#2152,.T.);
#2150=EDGE_CURVE('',#157,#173,#2153,.T.);
#2151=LINE('',#172,#2154);
#2152=LINE('',#170,#2155);
#2153=LINE('',#156,#2156);
#2154=VECTOR('',#2157,1.0);
#2155=VECTOR('',#2158,1.0);
#2156=VECTOR('',#2159,1.0);
#2157=DIRECTION('',(-1,0,0));
#2158=DIRECTION('',(0.5721815960240813,0.8201269543011832,0));
#2159=DIRECTION('',(0,-1,0));
#2160=STYLED_ITEM('',(#18),#2161);
#2161=FACE_SURFACE('',(#2166),#2162,.T.);
#2162=PLANE('',#2163);
#2163=AXIS2_PLACEMENT_3D('',#160,#2164,#2165);
#2164=DIRECTION('',(0,0,-1));
#2165=DIRECTION('',(1,0,0));
#2166=FACE_BOUND('',#2167,.T.);
#2167=EDGE_LOOP('',(#2168,#2169,#2170));
#2168=ORIENTED_EDGE('',*,*,#2171,.T.);
#2169=ORIENTED_EDGE('',*,*,#2172,.T.);
#2170=ORIENTED_EDGE('',*,*,#2173,.T.);
#2171=EDGE_CURVE('',#161,#159,#2174,.F.);
#2172=EDGE_CURVE('',#159,#175,#2175,.T.);
#2173=EDGE_CURVE('',#175,#161,#2176,.T.);
#2174=LINE('',#160,#2177);
#2175=LINE('',#158,#2178);
#2176=LINE('',#174,#2179);
#2177=VECTOR('',#2180,1.0);
#2178=VECTOR('',#2181,1.0);
#2179=VECTOR('',#2182,1.0);
#2180=DIRECTION('',(1,0,0));
#2181=DIRECTION('',(0,-1,0));
#2182=DIRECTION('',(-0.01453334862371598,0.9998943853116595,0));
#2183=STYLED_ITEM('',(#18),#2184);
#2184=FACE_SURFACE('',(#2189),#2185,.T.);
#2185=PLANE('',#2186);
#2186=AXIS2_PLACEMENT_3D('',#162,#2187,#2188);
#2187=DIRECTION('',(1,0,-0));
#2188=DIRECTION('',(0,0,1));
#2189=FACE_BOUND('',#2190,.T.);
#2190=EDGE_LOOP('',(#2191,#2192,#2193));
#2191=ORIENTED_EDGE('',*,*,#2194,.T.);
#2192=ORIENTED_EDGE('',*,*,#2195,.T.);
#2193=ORIENTED_EDGE('',*,*,#2196,.T.);
#2194=EDGE_CURVE('',#163,#161,#2197,.F.);
#2195=EDGE_CURVE('',#161,#177,#2198,.T.);
#2196=EDGE_CURVE('',#177,#163,#2199,.T.);
#2197=LINE('',#162,#2200);
#2198=LINE('',#160,#2201);
#2199=LINE('',#176,#2202);
#2200=VECTOR('',#2203,1.0);
#2201=VECTOR('',#2204,1.0);
#2202=VECTOR('',#2205,1.0);
#2203=DIRECTION('',(0,0,1));
#2204=DIRECTION('',(0,-1,0));
#2205=DIRECTION('',(0,0.904699462650605,-0.42605032834127327));
#2206=STYLED_ITEM('',(#18),#2207);
#2207=FACE_SURFACE('',(#2212),#2208,.T.);
#2208=PLANE('',#2209);
#2209=AXIS2_PLACEMENT_3D('',#164,#2210,#2211);
#2210=DIRECTION('',(0,0,1));
#2211=DIRECTION('',(-1,0,0));
#2212=FACE_BOUND('',#2213,.T.);
#2213=EDGE_LOOP('',(#2214,#2215,#2216));
#2214=ORIENTED_EDGE('',*,*,#2217,.T.);
#2215=ORIENTED_EDGE('',*,*,#2218,.T.);
#2216=ORIENTED_EDGE('',*,*,#2219,.T.);
#2217=EDGE_CURVE('',#165,#163,#2220,.F.);
#2218=EDGE_CURVE('',#163,#179,#2221,.T.);
#2219=EDGE_CURVE('',#179,#165,#2222,.T.);
#2220=LINE('',#164,#2223);
#2221=LINE('',#162,#2224);
#2222=LINE('',#178,#2225);
#2223=VECTOR('',#2226,1.0);
#2224=VECTOR('',#2227,1.0);
#2225=VECTOR('',#2228,1.0);
#2226=DIRECTION('',(-1,0,0));
#2227=DIRECTION('',(0,-1,0));
#2228=DIRECTION('',(0.5387756897212093,0.8424492602913455,0));
#2229=STYLED_ITEM('',(#18),#2230);
#2230=FACE_SURFACE('',(#2235),#2231,.T.);
#2231=PLANE('',#2232);
#2232=AXIS2_PLACEMENT_3D('',#174,#2233,#2234);
#2233=DIRECTION('',(0,0,-1));
#2234=DIRECTION('',(-1,0,0));
#2235=FACE_BOUND('',#2236,.T.);
#2236=EDGE_LOOP('',(#2237,#2238,#2239));
#2237=ORIENTED_EDGE('',*,*,#2240,.T.);
#2238=ORIENTED_EDGE('',*,*,#2241,.T.);
#2239=ORIENTED_EDGE('',*,*,#2242,.T.);
#2240=EDGE_CURVE('',#175,#177,#2243,.F.);
#2241=EDGE_CURVE('',#177,#161,#2244,.T.);
#2242=EDGE_CURVE('',#161,#175,#2245,.T.);
#2243=LINE('',#174,#2246);
#2244=LINE('',#176,#2247);
#2245=LINE('',#160,#2248);
#2246=VECTOR('',#2249,1.0);
#2247=VECTOR('',#2250,1.0);
#2248=VECTOR('',#2251,1.0);
#2249=DIRECTION('',(-1,0,0));
#2250=DIRECTION('',(0,1,0));
#2251=DIRECTION('',(0.01453334862371598,-0.9998943853116595,0));
#2252=STYLED_ITEM('',(#18),#2253);
#2253=FACE_SURFACE('',(#2258),#2254,.T.);
#2254=PLANE('',#2255);
#2255=AXIS2_PLACEMENT_3D('',#176,#2256,#2257);
#2256=DIRECTION('',(1,0,0));
#2257=DIRECTION('',(0,0,-1));
#2258=FACE_BOUND('',#2259,.T.);
#2259=EDGE_LOOP('',(#2260,#2261,#2262));
#2260=ORIENTED_EDGE('',*,*,#2263,.T.);
#2261=ORIENTED_EDGE('',*,*,#2264,.T.);
#2262=ORIENTED_EDGE('',*,*,#2265,.T.);
#2263=EDGE_CURVE('',#177,#179,#2266,.F.);
#2264=EDGE_CURVE('',#179,#163,#2267,.T.);
#2265=EDGE_CURVE('',#163,#177,#2268,.T.);
#2266=LINE('',#176,#2269);
#2267=LINE('',#178,#2270);
#2268=LINE('',#162,#2271);
#2269=VECTOR('',#2272,1.0);
#2270=VECTOR('',#2273,1.0);
#2271=VECTOR('',#2274,1.0);
#2272=DIRECTION('',(0,0,-1));
#2273=DIRECTION('',(0,1,0));
#2274=DIRECTION('',(0,-0.904699462650605,0.42605032834127327));
#2275=STYLED_ITEM('',(#18),#2276);
#2276=FACE_SURFACE('',(#2281),#2277,.T.);
#2277=PLANE('',#2278);
#2278=AXIS2_PLACEMENT_3D('',#178,#2279,#2280);
#2279=DIRECTION('',(0,0,1));
#2280=DIRECTION('',(1,0,0));
#2281=FACE_BOUND('',#2282,.T.);
#2282=EDGE_LOOP('',(#2283,#2284,#2285));
#2283=ORIENTED_EDGE('',*,*,#2286,.T.);
#2284=ORIENTED_EDGE('',*,*,#2287,.T.);
#2285=ORIENTED_EDGE('',*,*,#2288,.T.);
#2286=EDGE_CURVE('',#179,#181,#2289,.F.);
#2287=EDGE_CURVE('',#181,#165,#2290,.T.);
#2288=EDGE_CURVE('',#165,#179,#2291,.T.);
#2289=LINE('',#178,#2292);
#2290=LINE('',#180,#2293);
#2291=LINE('',#164,#2294);
#2292=VECTOR('',#2295,1.0);
#2293=VECTOR('',#2296,1.0);
#2294=VECTOR('',#2297,1.0);
#2295=DIRECTION('',(1,0,0));
#2296=DIRECTION('',(0,1,0));
#2297=DIRECTION('',(-0.5387756897212093,-0.8424492602913455,0));
#2298=STYLED_ITEM('',(#18),#2299);
#2299=FACE_SURFACE('',(#2304),#2300,.T.);
#2300=PLANE('',#2301);
#2301=AXIS2_PLACEMENT_3D('',#158,#2302,#2303);
#2302=DIRECTION('',(0,1,-0));
#2303=DIRECTION('',(-0.7808688094430309,0,0.6246950475544236));
#2304=FACE_BOUND('',#2305,.T.);
#2305=EDGE_LOOP('',(#2306,#2307,#2308));
#2306=ORIENTED_EDGE('',*,*,#2309,.T.);
#2307=ORIENTED_EDGE('',*,*,#2310,.T.);
#2308=ORIENTED_EDGE('',*,*,#2311,.T.);
#2309=EDGE_CURVE('',#159,#153,#2312,.F.);
#2310=EDGE_CURVE('',#153,#151,#2313,.T.);
#2311=EDGE_CURVE('',#151,#159,#2314,.T.);
#2312=LINE('',#158,#2315);
#2313=LINE('',#152,#2316);
#2314=LINE('',#150,#2317);
#2315=VECTOR('',#2318,1.0);
#2316=VECTOR('',#2319,1.0);
#2317=VECTOR('',#2320,1.0);
#2318=DIRECTION('',(-0.7808688094430309,0,0.6246950475544236));
#2319=DIRECTION('',(1,0,0));
#2320=DIRECTION('',(0,0,-1));
#2321=STYLED_ITEM('',(#18),#2322);
#2322=FACE_SURFACE('',(#2327),#2323,.T.);
#2323=PLANE('',#2324);
#2324=AXIS2_PLACEMENT_3D('',#160,#2325,#2326);
#2325=DIRECTION('',(0,1,-0));
#2326=DIRECTION('',(-0.7071067811865482,0,0.7071067811865469));
#2327=FACE_BOUND('',#2328,.T.);
#2328=EDGE_LOOP('',(#2329,#2330,#2331));
#2329=ORIENTED_EDGE('',*,*,#2332,.T.);
#2330=ORIENTED_EDGE('',*,*,#2333,.T.);
#2331=ORIENTED_EDGE('',*,*,#2334,.T.);
#2332=EDGE_CURVE('',#161,#153,#2335,.F.);
#2333=EDGE_CURVE('',#153,#159,#2336,.T.);
#2334=EDGE_CURVE('',#159,#161,#2337,.T.);
#2335=LINE('',#160,#2338);
#2336=LINE('',#152,#2339);
#2337=LINE('',#158,#2340);
#2338=VECTOR('',#2341,1.0);
#2339=VECTOR('',#2342,1.0);
#2340=VECTOR('',#2343,1.0);
#2341=DIRECTION('',(-0.7071067811865482,0,0.7071067811865469));
#2342=DIRECTION('',(0.7808688094430309,0,-0.6246950475544236));
#2343=DIRECTION('',(-1,0,0));
#2344=STYLED_ITEM('',(#18),#2345);
#2345=FACE_SURFACE('',(#2350),#2346,.T.);
#2346=PLANE('',#2347);
#2347=AXIS2_PLACEMENT_3D('',#154,#2348,#2349);
#2348=DIRECTION('',(0,1,0));
#2349=DIRECTION('',(0,0,1));
#2350=FACE_BOUND('',#2351,.T.);
#2351=EDGE_LOOP('',(#2352,#2353,#2354));
#2352=ORIENTED_EDGE('',*,*,#2355,.T.);
#2353=ORIENTED_EDGE('',*,*,#2356,.T.);
#2354=ORIENTED_EDGE('',*,*,#2357,.T.);
#2355=EDGE_CURVE('',#155,#153,#2358,.F.);
#2356=EDGE_CURVE('',#153,#161,#2359,.T.);
#2357=EDGE_CURVE('',#161,#155,#2360,.T.);
#2358=LINE('',#154,#2361);
#2359=LINE('',#152,#2362);
#2360=LINE('',#160,#2363);
#2361=VECTOR('',#2364,1.0);
#2362=VECTOR('',#2365,1.0);
#2363=VECTOR('',#2366,1.0);
#2364=DIRECTION('',(0,0,1));
#2365=DIRECTION('',(0.7071067811865482,0,-0.7071067811865469));
#2366=DIRECTION('',(-0.10923255186885404,0,-0.9940162220065719));
#2367=STYLED_ITEM('',(#18),#2368);
#2368=FACE_SURFACE('',(#2373),#2369,.T.);
#2369=PLANE('',#2370);
#2370=AXIS2_PLACEMENT_3D('',#162,#2371,#2372);
#2371=DIRECTION('',(0,1,-0));
#2372=DIRECTION('',(-0.7071067811865476,0,-0.7071067811865476));
#2373=FACE_BOUND('',#2374,.T.);
#2374=EDGE_LOOP('',(#2375,#2376,#2377));
#2375=ORIENTED_EDGE('',*,*,#2378,.T.);
#2376=ORIENTED_EDGE('',*,*,#2379,.T.);
#2377=ORIENTED_EDGE('',*,*,#2380,.T.);
#2378=EDGE_CURVE('',#163,#155,#2381,.F.);
#2379=EDGE_CURVE('',#155,#161,#2382,.T.);
#2380=EDGE_CURVE('',#161,#163,#2383,.T.);
#2381=LINE('',#162,#2384);
#2382=LINE('',#154,#2385);
#2383=LINE('',#160,#2386);
#2384=VECTOR('',#2387,1.0);
#2385=VECTOR('',#2388,1.0);
#2386=VECTOR('',#2389,1.0);
#2387=DIRECTION('',(-0.7071067811865476,0,-0.7071067811865476));
#2388=DIRECTION('',(0.10923255186885404,0,0.9940162220065719));
#2389=DIRECTION('',(0,0,-1));
#2390=STYLED_ITEM('',(#18),#2391);
#2391=FACE_SURFACE('',(#2396),#2392,.T.);
#2392=PLANE('',#2393);
#2393=AXIS2_PLACEMENT_3D('',#162,#2394,#2395);
#2394=DIRECTION('',(0,1,0));
#2395=DIRECTION('',(0.9958932064677039,0,-0.09053574604251853));
#2396=FACE_BOUND('',#2397,.T.);
#2397=EDGE_LOOP('',(#2398,#2399,#2400));
#2398=ORIENTED_EDGE('',*,*,#2401,.T.);
#2399=ORIENTED_EDGE('',*,*,#2402,.T.);
#2400=ORIENTED_EDGE('',*,*,#2403,.T.);
#2401=EDGE_CURVE('',#163,#157,#2404,.F.);
#2402=EDGE_CURVE('',#157,#155,#2405,.T.);
#2403=EDGE_CURVE('',#155,#163,#2406,.T.);
#2404=LINE('',#162,#2407);
#2405=LINE('',#156,#2408);
#2406=LINE('',#154,#2409);
#2407=VECTOR('',#2410,1.0);
#2408=VECTOR('',#2411,1.0);
#2409=VECTOR('',#2412,1.0);
#2410=DIRECTION('',(0.9958932064677039,0,-0.09053574604251853));
#2411=DIRECTION('',(-1,0,0));
#2412=DIRECTION('',(0.7071067811865476,0,0.7071067811865476));
#2413=STYLED_ITEM('',(#18),#2414);
#2414=FACE_SURFACE('',(#2419),#2415,.T.);
#2415=PLANE('',#2416);
#2416=AXIS2_PLACEMENT_3D('',#162,#2417,#2418);
#2417=DIRECTION('',(-0,1,0));
#2418=DIRECTION('',(1,0,0));
#2419=FACE_BOUND('',#2420,.T.);
#2420=EDGE_LOOP('',(#2421,#2422,#2423));
#2421=ORIENTED_EDGE('',*,*,#2424,.T.);
#2422=ORIENTED_EDGE('',*,*,#2425,.T.);
#2423=ORIENTED_EDGE('',*,*,#2426,.T.);
#2424=EDGE_CURVE('',#163,#165,#2427,.F.);
#2425=EDGE_CURVE('',#165,#157,#2428,.T.);
#2426=EDGE_CURVE('',#157,#163,#2429,.T.);
#2427=LINE('',#162,#2430);
#2428=LINE('',#164,#2431);
#2429=LINE('',#156,#2432);
#2430=VECTOR('',#2433,1.0);
#2431=VECTOR('',#2434,1.0);
#2432=VECTOR('',#2435,1.0);
#2433=DIRECTION('',(1,0,0));
#2434=DIRECTION('',(0,0,-1));
#2435=DIRECTION('',(-0.9958932064677039,0,0.09053574604251853));
#2436=STYLED_ITEM('',(#18),#2437);
#2437=FACE_SURFACE('',(#2442),#2438,.T.);
#2438=PLANE('',#2439);
#2439=AXIS2_PLACEMENT_3D('',#168,#2440,#2441);
#2440=DIRECTION('',(0,-1,0));
#2441=DIRECTION('',(0.7808688094430309,0,-0.6246950475544236));
#2442=FACE_BOUND('',#2443,.T.);
#2443=EDGE_LOOP('',(#2444,#2445,#2446));
#2444=ORIENTED_EDGE('',*,*,#2447,.T.);
#2445=ORIENTED_EDGE('',*,*,#2448,.T.);
#2446=ORIENTED_EDGE('',*,*,#2449,.T.);
#2447=EDGE_CURVE('',#169,#175,#2450,.F.);
#2448=EDGE_CURVE('',#175,#167,#2451,.T.);
#2449=EDGE_CURVE('',#167,#169,#2452,.T.);
#2450=LINE('',#168,#2453);
#2451=LINE('',#174,#2454);
#2452=LINE('',#166,#2455);
#2453=VECTOR('',#2456,1.0);
#2454=VECTOR('',#2457,1.0);
#2455=VECTOR('',#2458,1.0);
#2456=DIRECTION('',(0.7808688094430309,0,-0.6246950475544236));
#2457=DIRECTION('',(0,0,1));
#2458=DIRECTION('',(-1,0,0));
#2459=STYLED_ITEM('',(#18),#2460);
#2460=FACE_SURFACE('',(#2465),#2461,.T.);
#2461=PLANE('',#2462);
#2462=AXIS2_PLACEMENT_3D('',#168,#2463,#2464);
#2463=DIRECTION('',(0,-1,0));
#2464=DIRECTION('',(0.7071067811865482,0,-0.7071067811865469));
#2465=FACE_BOUND('',#2466,.T.);
#2466=EDGE_LOOP('',(#2467,#2468,#2469));
#2467=ORIENTED_EDGE('',*,*,#2470,.T.);
#2468=ORIENTED_EDGE('',*,*,#2471,.T.);
#2469=ORIENTED_EDGE('',*,*,#2472,.T.);
#2470=EDGE_CURVE('',#169,#177,#2473,.F.);
#2471=EDGE_CURVE('',#177,#175,#2474,.T.);
#2472=EDGE_CURVE('',#175,#169,#2475,.T.);
#2473=LINE('',#168,#2476);
#2474=LINE('',#176,#2477);
#2475=LINE('',#174,#2478);
#2476=VECTOR('',#2479,1.0);
#2477=VECTOR('',#2480,1.0);
#2478=VECTOR('',#2481,1.0);
#2479=DIRECTION('',(0.7071067811865482,0,-0.7071067811865469));
#2480=DIRECTION('',(1,0,0));
#2481=DIRECTION('',(-0.7808688094430309,0,0.6246950475544236));
#2482=STYLED_ITEM('',(#18),#2483);
#2483=FACE_SURFACE('',(#2488),#2484,.T.);
#2484=PLANE('',#2485);
#2485=AXIS2_PLACEMENT_3D('',#168,#2486,#2487);
#2486=DIRECTION('',(0,-1,0));
#2487=DIRECTION('',(0,0,-1));
#2488=FACE_BOUND('',#2489,.T.);
#2489=EDGE_LOOP('',(#2490,#2491,#2492));
#2490=ORIENTED_EDGE('',*,*,#2493,.T.);
#2491=ORIENTED_EDGE('',*,*,#2494,.T.);
#2492=ORIENTED_EDGE('',*,*,#2495,.T.);
#2493=EDGE_CURVE('',#169,#171,#2496,.F.);
#2494=EDGE_CURVE('',#171,#177,#2497,.T.);
#2495=EDGE_CURVE('',#177,#169,#2498,.T.);
#2496=LINE('',#168,#2499);
#2497=LINE('',#170,#2500);
#2498=LINE('',#176,#2501);
#2499=VECTOR('',#2502,1.0);
#2500=VECTOR('',#2503,1.0);
#2501=VECTOR('',#2504,1.0);
#2502=DIRECTION('',(0,0,-1));
#2503=DIRECTION('',(0.10923255186885404,0,0.9940162220065719));
#2504=DIRECTION('',(-0.7071067811865482,0,0.7071067811865469));
#2505=STYLED_ITEM('',(#18),#2506);
#2506=FACE_SURFACE('',(#2511),#2507,.T.);
#2507=PLANE('',#2508);
#2508=AXIS2_PLACEMENT_3D('',#170,#2509,#2510);
#2509=DIRECTION('',(0,-1,0));
#2510=DIRECTION('',(0.7071067811865476,0,0.7071067811865476));
#2511=FACE_BOUND('',#2512,.T.);
#2512=EDGE_LOOP('',(#2513,#2514,#2515));
#2513=ORIENTED_EDGE('',*,*,#2516,.T.);
#2514=ORIENTED_EDGE('',*,*,#2517,.T.);
#2515=ORIENTED_EDGE('',*,*,#2518,.T.);
#2516=EDGE_CURVE('',#171,#179,#2519,.F.);
#2517=EDGE_CURVE('',#179,#177,#2520,.T.);
#2518=EDGE_CURVE('',#177,#171,#2521,.T.);
#2519=LINE('',#170,#2522);
#2520=LINE('',#178,#2523);
#2521=LINE('',#176,#2524);
#2522=VECTOR('',#2525,1.0);
#2523=VECTOR('',#2526,1.0);
#2524=VECTOR('',#2527,1.0);
#2525=DIRECTION('',(0.7071067811865476,0,0.7071067811865476));
#2526=DIRECTION('',(0,0,1));
#2527=DIRECTION('',(-0.10923255186885404,0,-0.9940162220065719));
#2528=STYLED_ITEM('',(#18),#2529);
#2529=FACE_SURFACE('',(#2534),#2530,.T.);
#2530=PLANE('',#2531);
#2531=AXIS2_PLACEMENT_3D('',#170,#2532,#2533);
#2532=DIRECTION('',(0,-1,0));
#2533=DIRECTION('',(1,0,0));
#2534=FACE_BOUND('',#2535,.T.);
#2535=EDGE_LOOP('',(#2536,#2537,#2538));
#2536=ORIENTED_EDGE('',*,*,#2539,.T.);
#2537=ORIENTED_EDGE('',*,*,#2540,.T.);
#2538=ORIENTED_EDGE('',*,*,#2541,.T.);
#2539=EDGE_CURVE('',#171,#173,#2542,.F.);
#2540=EDGE_CURVE('',#173,#179,#2543,.T.);
#2541=EDGE_CURVE('',#179,#171,#2544,.T.);
#2542=LINE('',#170,#2545);
#2543=LINE('',#172,#2546);
#2544=LINE('',#178,#2547);
#2545=VECTOR('',#2548,1.0);
#2546=VECTOR('',#2549,1.0);
#2547=VECTOR('',#2550,1.0);
#2548=DIRECTION('',(1,0,0));
#2549=DIRECTION('',(-0.9958932064677039,0,0.09053574604251853));
#2550=DIRECTION('',(-0.7071067811865476,0,-0.7071067811865476));
#2551=STYLED_ITEM('',(#18),#2552);
#2552=FACE_SURFACE('',(#2557),#2553,.T.);
#2553=PLANE('',#2554);
#2554=AXIS2_PLACEMENT_3D('',#178,#2555,#2556);
#2555=DIRECTION('',(0,-1,0));
#2556=DIRECTION('',(0.9958932064677039,0,-0.09053574604251853));
#2557=FACE_BOUND('',#2558,.T.);
#2558=EDGE_LOOP('',(#2559,#2560,#2561));
#2559=ORIENTED_EDGE('',*,*,#2562,.T.);
#2560=ORIENTED_EDGE('',*,*,#2563,.T.);
#2561=ORIENTED_EDGE('',*,*,#2564,.T.);
#2562=EDGE_CURVE('',#179,#173,#2565,.F.);
#2563=EDGE_CURVE('',#173,#181,#2566,.T.);
#2564=EDGE_CURVE('',#181,#179,#2567,.T.);
#2565=LINE('',#178,#2568);
#2566=LINE('',#172,#2569);
#2567=LINE('',#180,#2570);
#2568=VECTOR('',#2571,1.0);
#2569=VECTOR('',#2572,1.0);
#2570=VECTOR('',#2573,1.0);
#2571=DIRECTION('',(0.9958932064677039,0,-0.09053574604251853));
#2572=DIRECTION('',(0,0,1));
#2573=DIRECTION('',(-1,0,0));
#2574=STYLED_ITEM('',(#18),#2575);
#2575=FACE_SURFACE('',(#2580),#2576,.T.);
#2576=PLANE('',#2577);
#2577=AXIS2_PLACEMENT_3D('',#174,#2578,#2579);
#2578=DIRECTION('',(1,0,0));
#2579=DIRECTION('',(0,1,0));
#2580=FACE_BOUND('',#2581,.T.);
#2581=EDGE_LOOP('',(#2582,#2583,#2584));
#2582=ORIENTED_EDGE('',*,*,#2585,.T.);
#2583=ORIENTED_EDGE('',*,*,#2586,.T.);
#2584=ORIENTED_EDGE('',*,*,#2587,.T.);
#2585=EDGE_CURVE('',#175,#159,#2588,.F.);
#2586=EDGE_CURVE('',#159,#151,#2589,.T.);
#2587=EDGE_CURVE('',#151,#175,#2590,.T.);
#2588=LINE('',#174,#2591);
#2589=LINE('',#158,#2592);
#2590=LINE('',#150,#2593);
#2591=VECTOR('',#2594,1.0);
#2592=VECTOR('',#2595,1.0);
#2593=VECTOR('',#2596,1.0);
#2594=DIRECTION('',(0,1,0));
#2595=DIRECTION('',(0,0,1));
#2596=DIRECTION('',(0,-0.9983141698791173,-0.058041521504599736));
#2597=STYLED_ITEM('',(#18),#2598);
#2598=FACE_SURFACE('',(#2603),#2599,.T.);
#2599=PLANE('',#2600);
#2600=AXIS2_PLACEMENT_3D('',#174,#2601,#2602);
#2601=DIRECTION('',(1,0,0));
#2602=DIRECTION('',(0,0.9983141698791173,0.058041521504599736));
#2603=FACE_BOUND('',#2604,.T.);
#2604=EDGE_LOOP('',(#2605,#2606,#2607));
#2605=ORIENTED_EDGE('',*,*,#2608,.T.);
#2606=ORIENTED_EDGE('',*,*,#2609,.T.);
#2607=ORIENTED_EDGE('',*,*,#2610,.T.);
#2608=EDGE_CURVE('',#175,#151,#2611,.F.);
#2609=EDGE_CURVE('',#151,#167,#2612,.T.);
#2610=EDGE_CURVE('',#167,#175,#2613,.T.);
#2611=LINE('',#174,#2614);
#2612=LINE('',#150,#2615);
#2613=LINE('',#166,#2616);
#2614=VECTOR('',#2617,1.0);
#2615=VECTOR('',#2618,1.0);
#2616=VECTOR('',#2619,1.0);
#2617=DIRECTION('',(0,0.9983141698791173,0.058041521504599736));
#2618=DIRECTION('',(0,-1,0));
#2619=DIRECTION('',(0,0,-1));
#2620=STYLED_ITEM('',(#18),#2621);
#2621=FACE_SURFACE('',(#2626),#2622,.T.);
#2622=PLANE('',#2623);
#2623=AXIS2_PLACEMENT_3D('',#172,#2624,#2625);
#2624=DIRECTION('',(1,0,0));
#2625=DIRECTION('',(0,1,0));
#2626=FACE_BOUND('',#2627,.T.);
#2627=EDGE_LOOP('',(#2628,#2629,#2630));
#2628=ORIENTED_EDGE('',*,*,#2631,.T.);
#2629=ORIENTED_EDGE('',*,*,#2632,.T.);
#2630=ORIENTED_EDGE('',*,*,#2633,.T.);
#2631=EDGE_CURVE('',#173,#157,#2634,.F.);
#2632=EDGE_CURVE('',#157,#165,#2635,.T.);
#2633=EDGE_CURVE('',#165,#173,#2636,.T.);
#2634=LINE('',#172,#2637);
#2635=LINE('',#156,#2638);
#2636=LINE('',#164,#2639);
#2637=VECTOR('',#2640,1.0);
#2638=VECTOR('',#2641,1.0);
#2639=VECTOR('',#2642,1.0);
#2640=DIRECTION('',(0,1,0));
#2641=DIRECTION('',(0,0,1));
#2642=DIRECTION('',(0,-0.9983141698791173,-0.05804152150459984));
#2643=STYLED_ITEM('',(#18),#2644);
#2644=FACE_SURFACE('',(#2649),#2645,.T.);
#2645=PLANE('',#2646);
#2646=AXIS2_PLACEMENT_3D('',#180,#2647,#2648);
#2647=DIRECTION('',(1,-0,0));
#2648=DIRECTION('',(0,0,-1));
#2649=FACE_BOUND('',#2650,.T.);
#2650=EDGE_LOOP('',(#2651,#2652,#2653));
#2651=ORIENTED_EDGE('',*,*,#2654,.T.);
#2652=ORIENTED_EDGE('',*,*,#2655,.T.);
#2653=ORIENTED_EDGE('',*,*,#2656,.T.);
#2654=EDGE_CURVE('',#181,#173,#2657,.F.);
#2655=EDGE_CURVE('',#173,#165,#2658,.T.);
#2656=EDGE_CURVE('',#165,#181,#2659,.T.);
#2657=LINE('',#180,#2660);
#2658=LINE('',#172,#2661);
#2659=LINE('',#164,#2662);
#2660=VECTOR('',#2663,1.0);
#2661=VECTOR('',#2664,1.0);
#2662=VECTOR('',#2665,1.0);
#2663=DIRECTION('',(0,0,-1));
#2664=DIRECTION('',(0,0.9983141698791173,0.05804152150459984));
#2665=DIRECTION('',(0,-1,0));
ENDSEC;
END-ISO-10303-21;
